<svg width="80" height="77" viewBox="0 0 80 77" fill="none" xmlns="http://www.w3.org/2000/svg">
<g clip-path="url(#clip0_12_3352)">
<path d="M80 0H23.4969V43.5551H80V0Z" fill="#85582D"/>
<path d="M79.9954 0.0136822V0H23.4969L51.7872 21.7821L79.9954 0.0136822Z" fill="#99692B"/>
<path d="M79.9954 43.5005L51.7872 21.7822L23.5745 43.5552H79.9954V43.5005Z" fill="#99692B"/>
<g style="mix-blend-mode:multiply" opacity="0.4">
<path d="M78.7959 0.971436H24.6964V42.5837H78.7959V0.971436Z" fill="#85582D"/>
</g>
<path d="M77.5235 1.90649H25.9689V41.6488H77.5235V1.90649Z" fill="#003E27"/>
<path d="M76.8896 2.08887H26.6074V40.8461H76.8896V2.08887Z" fill="#0B4D34"/>
<path d="M36.3354 25.0248C36.3081 25.0111 36.2807 25.002 36.2488 24.9929C36.2397 24.9792 36.2305 24.9655 36.2214 24.9518C36.1804 24.8834 36.153 24.8059 36.1256 24.7284C35.8931 24.0807 35.779 23.4057 35.6741 22.7308C35.5829 22.1424 35.5692 21.4766 35.3002 20.9338C35.0174 20.3592 34.3789 20.2132 33.7905 20.2543C32.81 20.3272 31.8522 21.0661 31.6333 22.0375C31.5831 22.261 32.2809 22.2154 32.322 22.0284C32.4588 21.4173 32.9924 20.7423 33.6036 20.569C34.5157 20.3044 34.7574 21.4492 34.8623 22.1105C34.8623 22.1333 34.8669 22.1561 34.8714 22.1789C34.8532 22.074 34.315 21.9463 34.2284 21.9235C33.9639 21.8642 33.6811 21.8505 33.4211 21.9235C32.8556 22.0786 32.5409 22.5894 32.3813 23.1184C32.1578 23.8573 32.3311 24.6599 33.0289 25.0659C33.6948 25.449 34.4701 25.3213 34.9718 24.7557C35.0904 24.6235 35.1907 24.4775 35.2728 24.3179C35.323 24.514 35.3777 24.7147 35.4552 24.9017C35.4917 24.9974 35.5373 25.1069 35.6103 25.1844C35.7608 25.3349 36.0572 25.303 36.2351 25.23C36.3126 25.1981 36.4814 25.0978 36.3354 25.0202V25.0248ZM34.1463 24.7147C34.0368 24.8105 33.9182 24.888 33.786 24.9427C33.7313 24.9655 33.672 24.9792 33.6127 24.9838C33.599 24.9838 33.5762 24.9838 33.5762 24.9838C33.3162 24.9017 33.0928 24.5414 33.0198 24.2586C32.924 23.8937 32.997 23.4878 33.1156 23.1412C33.225 22.8311 33.4211 22.4754 33.713 22.2975C33.827 22.2291 33.9502 22.2017 34.0779 22.1971C34.087 22.1971 34.1782 22.2108 34.1554 22.2063C34.2238 22.2245 34.274 22.2428 34.3424 22.2838C34.5659 22.4115 34.7255 22.6167 34.8076 22.8493C34.9399 23.5198 34.6434 24.2632 34.1463 24.7147ZM36.2762 25.0248C36.2762 25.0248 36.2898 25.0339 36.2762 25.0248V25.0248Z" fill="white"/>
<path d="M71.7405 25.043C71.6127 24.9609 71.4349 24.8971 71.2798 24.929C71.2661 24.9153 71.257 24.9016 71.2433 24.888C71.1248 24.742 71.0518 24.5687 70.9879 24.3954C70.8511 24.0305 70.7736 23.6383 70.7188 23.2506C70.6596 22.8356 70.6504 22.416 70.6368 21.9964C70.655 21.3534 70.6231 20.7058 70.6231 20.0764C70.6231 19.9897 70.4589 19.9578 70.2901 19.976C70.1168 19.9259 69.9344 19.9304 69.9344 20.049C69.9344 20.0718 69.9344 20.0992 69.9344 20.122C69.9207 20.1402 69.9162 20.1585 69.9162 20.1767C69.9162 21.1846 69.9982 22.229 69.8249 23.2278C69.7428 23.7113 69.3917 24.6964 68.8854 24.8697C68.0234 25.1662 67.914 23.3647 67.8912 22.8675C67.8456 21.9417 67.9733 21.0296 67.9915 20.1037C67.9915 19.9259 67.2937 19.9806 67.2892 20.2041C67.2664 21.2485 67.1159 22.2746 67.2116 23.3236C67.2572 23.8253 67.353 24.3635 67.6449 24.7876C67.955 25.23 68.5114 25.3258 69.0177 25.2346C69.6608 25.1206 70.0347 24.6508 70.2673 24.0944C70.3357 24.2996 70.4178 24.5003 70.5273 24.6827C70.7781 25.1069 71.3072 25.3851 71.7997 25.2711C71.9594 25.2346 71.8089 25.0886 71.745 25.043H71.7405Z" fill="white"/>
<path d="M40.4675 16.2818C40.3124 16.3137 40.3945 16.3958 40.3717 16.4186C40.6226 16.332 40.4538 16.259 40.4675 16.2818Z" fill="white"/>
<path d="M42.9668 15.4426L42.9303 15.4928L43.286 15.3149L42.9668 15.4426Z" fill="white"/>
<path d="M45.384 14.9866C45.124 14.8543 44.5083 15.1644 44.0705 15.1872L43.993 15.1644L43.8242 15.3332C44.3396 15.2055 45.01 15.0002 45.3886 14.9866H45.384Z" fill="white"/>
<path d="M46.7294 15.1463C46.6427 15.0916 47.003 15.0505 46.4238 15.1691C46.4558 15.1691 46.4649 15.1737 46.4786 15.1782C46.5287 15.1691 46.6017 15.16 46.7248 15.1463H46.7294Z" fill="white"/>
<path d="M46.4831 15.1782C46.2277 15.2193 46.6564 15.2101 46.4831 15.1782V15.1782Z" fill="white"/>
<path d="M47.6598 14.9865L47.3314 15.0823C47.4044 15.1142 47.7054 15.0823 47.6005 15.1233C47.9426 15.0503 47.865 15.023 47.6644 14.9819L47.6598 14.9865Z" fill="white"/>
<path d="M47.9653 14.8269L47.792 14.8725C47.8239 14.8862 47.8695 14.8862 47.9653 14.8269Z" fill="white"/>
<path d="M47.4271 14.9684L47.792 14.8726C47.7373 14.8498 47.7281 14.7997 47.6232 14.9137C47.646 14.859 47.5822 14.9137 47.4271 14.9684Z" fill="white"/>
<path d="M47.2128 14.9684C47.0167 14.9547 46.7704 14.9684 47.1033 14.8635C46.4603 14.9775 46.5743 15.0779 47.2128 14.9684Z" fill="white"/>
<path d="M45.4798 14.795L45.2198 14.7859L45.01 14.8771C45.1149 14.8269 45.5071 14.8406 45.4798 14.7905V14.795Z" fill="white"/>
<path d="M49.7669 14.8679C49.7851 14.8314 49.6438 14.7813 49.6164 14.7402L49.3701 14.7995C49.5024 14.8132 49.7441 14.8178 49.7669 14.8679Z" fill="white"/>
<path d="M49.6164 14.7404L49.9858 14.6492C49.6529 14.6629 49.5936 14.7039 49.6164 14.7404Z" fill="white"/>
<path d="M48.0019 14.6355L47.4044 14.8362C47.4044 14.8362 47.5823 14.7815 47.7647 14.7267C47.9426 14.672 48.125 14.6218 48.125 14.6218L48.0064 14.6355H48.0019Z" fill="white"/>
<path d="M51.1944 14.7904L50.9846 14.8816L51.3586 14.7402L51.1944 14.7904Z" fill="white"/>
<path d="M52.143 14.7449C51.988 14.8178 52.3619 14.8543 52.1978 14.8999C52.4532 14.8817 52.6721 14.8178 52.8682 14.7677C52.6584 14.795 52.4349 14.795 52.143 14.7449Z" fill="white"/>
<path d="M53.1966 14.6855C53.0917 14.7038 52.9822 14.7312 52.8636 14.7631C52.9731 14.7448 53.0826 14.722 53.1966 14.6855Z" fill="white"/>
<path d="M50.6288 14.6309C50.6561 14.6492 50.72 14.6994 50.9298 14.7176L50.7793 14.6218C50.7337 14.6218 50.6835 14.6264 50.6333 14.6309H50.6288Z" fill="white"/>
<path d="M50.7703 14.6217H50.7748C50.9345 14.6217 51.0485 14.6217 51.0941 14.6172C51.053 14.6172 50.9573 14.6172 50.7703 14.6217Z" fill="white"/>
<path d="M50.5923 14.6309C50.5923 14.6309 50.6151 14.6309 50.6288 14.6309C50.6151 14.6218 50.606 14.6173 50.5923 14.6309Z" fill="white"/>
<path d="M48.9961 14.6308C49.2104 14.5578 49.6665 14.462 49.215 14.4119C49.0599 14.494 49.3199 14.5213 48.9961 14.6308Z" fill="white"/>
<path d="M50.4008 14.5215H49.9995C50.0086 14.5488 50.0816 14.5853 49.9767 14.6173L50.4008 14.5215Z" fill="white"/>
<path d="M50.5923 14.4758L50.4008 14.5214L50.5467 14.5169L50.5923 14.4758Z" fill="white"/>
<path d="M52.5124 14.5989C52.6857 14.5533 52.8727 14.5487 53.0871 14.5396C52.859 14.5214 52.6219 14.5077 52.3984 14.5168C52.3665 14.5487 52.2707 14.608 52.5124 14.5989Z" fill="white"/>
<path d="M51.6687 14.5898C51.6687 14.5898 51.696 14.5852 51.7052 14.5852C51.6824 14.5761 51.6641 14.5761 51.6687 14.5898Z" fill="white"/>
<path d="M55.1804 14.5761L55.1485 14.5579L55.1439 14.5715L55.1804 14.5761Z" fill="white"/>
<path d="M52.3619 14.4987C52.1885 14.485 52.0882 14.5124 51.9924 14.5443C52.1201 14.5307 52.257 14.5215 52.4029 14.517C52.4166 14.5033 52.4211 14.4942 52.3664 14.4987H52.3619Z" fill="white"/>
<path d="M53.7803 14.6445C53.6891 14.6217 53.5888 14.6034 53.4839 14.5852C53.5705 14.6171 53.7484 14.6673 53.7803 14.6445Z" fill="white"/>
<path d="M51.7645 14.6125C51.7645 14.6125 51.7463 14.6125 51.7417 14.6171C51.7964 14.6354 51.7919 14.6262 51.7645 14.6125Z" fill="white"/>
<path d="M51.7645 14.6126C51.8511 14.5944 51.9196 14.5716 51.988 14.5442C51.8831 14.5533 51.7873 14.567 51.7052 14.5852C51.728 14.5898 51.7508 14.6035 51.7645 14.6126Z" fill="white"/>
<path d="M55.8509 13.9651C55.8144 14.0563 55.3583 14.1156 54.9661 14.0061C54.5739 14.0654 54.8202 14.3756 55.1485 14.558C55.1622 14.5169 55.1622 14.4805 55.559 14.444C55.4222 14.3847 54.6879 14.2889 55.0254 14.2159C55.5545 14.1886 55.4541 14.2707 55.705 14.3299C55.4952 14.2022 56.3845 14.1977 56.2796 14.0244L55.8144 14.0563C55.8053 14.0289 55.9786 13.997 55.8509 13.9651Z" fill="white"/>
<path d="M54.4005 14.5215L54.2363 14.5306C54.4188 14.5488 54.551 14.5945 54.7927 14.672C55.0618 14.6355 55.1211 14.6036 55.1394 14.5717L54.3412 14.5352L54.396 14.5215H54.4005Z" fill="white"/>
<path d="M53.5066 14.5213C53.6343 14.421 54.0265 14.3845 53.7894 14.2705C53.3105 14.2705 53.4519 14.3526 53.1691 14.3982C53.9399 14.3663 52.9502 14.4529 53.5021 14.5122C53.3516 14.5305 53.2147 14.535 53.087 14.5396C53.2239 14.5533 53.3607 14.567 53.4838 14.5852C53.4793 14.5852 53.4701 14.5852 53.4656 14.5806C53.4337 14.567 53.42 14.5578 53.4565 14.567C53.4565 14.567 53.4701 14.567 53.4747 14.567C53.4793 14.5533 53.4929 14.5396 53.5112 14.5305C53.7347 14.5533 53.5477 14.5578 53.4747 14.567C53.4747 14.5715 53.4656 14.5761 53.4656 14.5806L54.2363 14.535C54.0722 14.5168 53.8715 14.5168 53.5066 14.5259V14.5213Z" fill="white"/>
<path d="M49.6118 14.1611C49.6346 14.1656 49.6346 14.1748 49.6392 14.1839C49.6893 14.1656 49.7076 14.1565 49.6118 14.1611Z" fill="white"/>
<path d="M49.9311 14.1977C49.8763 14.2159 49.8307 14.257 49.6483 14.2615C49.4887 14.2433 49.6483 14.2114 49.6346 14.1794C49.5252 14.2159 49.2561 14.2843 49.6027 14.3026L49.6574 14.2843C49.9721 14.2935 50.378 14.3984 50.3233 14.412C50.2275 14.3254 50.1454 14.2661 49.9265 14.1931L49.9311 14.1977Z" fill="white"/>
<path d="M51.7507 14.2979L52.3938 14.234L52.0654 14.1565L52.0837 14.2067C51.7142 14.193 51.7963 14.2568 51.7507 14.2979Z" fill="white"/>
<path d="M55.2534 14.6308L55.1667 14.7311L55.5407 14.5989L55.2534 14.6308Z" fill="white"/>
<path d="M56.0835 14.6582L56.047 14.7494L56.2705 14.7084L56.0835 14.6582Z" fill="white"/>
<path d="M52.216 30.7258L52.0244 30.7486C52.1156 30.7441 52.1749 30.735 52.216 30.7258Z" fill="white"/>
<path d="M53.6025 30.7578L53.639 30.7122C53.5751 30.735 53.5477 30.7532 53.6025 30.7578Z" fill="white"/>
<path d="M73.9752 22.001C74.0026 22.2609 73.9296 22.5391 74.03 22.4799L74.1029 22.3841C74.0391 22.2336 74.0026 22.1104 73.9752 22.001Z" fill="white"/>
<path d="M64.8766 29.4578C64.904 29.4624 64.9313 29.467 64.9632 29.4761C65.0225 29.4305 65.0818 29.3894 65.132 29.3484C65.0545 29.3803 64.9678 29.4168 64.8766 29.4578Z" fill="white"/>
<path d="M64.7489 29.9049L64.3749 29.8958C64.4615 29.9049 64.5801 29.9094 64.7489 29.9049Z" fill="white"/>
<path d="M44.6406 30.3015L44.408 30.379C44.7546 30.4201 44.6086 30.3517 44.6406 30.3015Z" fill="white"/>
<path d="M64.4707 15.99C64.6851 16.0903 64.8629 16.1633 65.018 16.2135C64.7626 16.0766 64.5665 15.9261 64.4707 15.99Z" fill="white"/>
<path d="M52.7815 29.6584C52.6675 29.6767 52.6173 29.6949 52.6173 29.7177C52.7359 29.7041 52.8043 29.6858 52.7815 29.6584Z" fill="white"/>
<path d="M65.6656 16.4141C65.6292 16.3958 65.5927 16.373 65.5562 16.3548C65.3874 16.3183 65.2187 16.2772 65.0226 16.2134C65.2096 16.3137 65.4285 16.4141 65.6702 16.4141H65.6656Z" fill="white"/>
<path d="M34.0186 15.9124C34.0186 15.9124 34.0642 15.9032 34.0824 15.8987C34.0824 15.885 34.055 15.8941 34.0186 15.9124Z" fill="white"/>
<path d="M41.9862 14.8452C41.9087 14.8635 41.7856 14.8817 41.667 14.9045C41.7263 14.9045 41.8221 14.8863 41.9862 14.8452Z" fill="white"/>
<path d="M59.4083 15.0323C59.235 15.0141 59.3809 15.0369 59.4083 15.0323V15.0323Z" fill="white"/>
<path d="M58.6056 14.5215C58.6421 14.517 58.674 14.5033 58.6831 14.4805C58.6649 14.5033 58.6375 14.517 58.6056 14.5215Z" fill="white"/>
<path d="M67.5355 16.4186C67.5355 16.4186 67.5447 16.4186 67.5492 16.4232C67.5082 16.3867 67.5127 16.3913 67.5355 16.4186Z" fill="white"/>
<path d="M59.1483 14.9502C59.2122 14.973 59.2851 14.9912 59.3672 15.0095C59.3307 14.9958 59.2669 14.9776 59.1483 14.9502Z" fill="white"/>
<path d="M59.1802 15.0003C59.1209 14.9911 59.0753 14.982 59.0297 14.9729C59.0069 14.9866 59.0251 15.0003 59.1802 15.0003Z" fill="white"/>
<path d="M59.65 15.0597C59.5496 15.046 59.4584 15.0278 59.3672 15.0095C59.3991 15.0232 59.4128 15.0278 59.4037 15.0323C59.4538 15.0369 59.5268 15.046 59.6454 15.0642L59.65 15.0597Z" fill="white"/>
<path d="M32.3038 26.9769C32.3038 26.9769 32.2856 26.9586 32.2719 26.9495C32.0895 26.9085 32.1624 26.9358 32.3038 26.9769Z" fill="white"/>
<path d="M73.9525 26.3566C73.9525 26.3566 73.9616 26.3429 73.9662 26.3384C73.957 26.3429 73.9479 26.3521 73.9434 26.3566H73.9525Z" fill="white"/>
<path d="M73.4963 26.8946C73.6423 26.6028 73.77 26.5024 73.9387 26.3565C73.9387 26.3565 73.8475 26.3474 73.7563 26.3382C73.6651 26.3246 73.5739 26.3154 73.5739 26.3154C73.5739 26.3154 73.5648 26.4614 73.5419 26.6028C73.5191 26.7487 73.4963 26.8946 73.4963 26.8946Z" fill="white"/>
<path d="M48.8912 30.6072L49.3381 30.7257C48.7817 30.8443 48.3849 30.7622 48.8045 30.9219C48.8866 30.6117 50.5741 30.9903 50.6516 30.671L50.9481 30.7485C50.8614 30.744 50.8477 30.7622 50.7656 30.7531C51.3403 30.9264 51.208 30.5433 51.9514 30.6117C52.2114 30.6436 52.3938 30.6938 52.2114 30.7257L52.7952 30.6619C52.9639 30.671 52.9229 30.7257 52.7541 30.7166L53.6435 30.7029L53.6344 30.7121C53.7621 30.6619 54.0494 30.5889 54.1862 30.5524C54.4097 30.598 54.0722 30.5844 54.1315 30.6254L54.6195 30.5479C54.8202 30.63 54.4142 30.7121 54.0722 30.6984C54.5283 31.0176 54.4781 30.6208 55.4723 30.7987L55.0071 30.8398C55.3081 31.0176 55.673 30.9492 56.2021 31.0496C56.0744 30.9948 55.144 30.785 55.6776 30.6984C55.8281 30.7212 56.0287 30.7257 56.3115 30.6573C56.3161 30.7713 56.5988 30.7349 56.95 30.7166L56.9318 30.8671C57.3103 30.8124 57.2784 30.7394 57.4973 30.6619C57.9215 30.6619 58.0127 30.7713 58.1176 30.8626C58.7971 30.858 57.6387 30.6984 58.4414 30.6345C59.0069 30.6619 59.4037 30.5798 60.0696 30.4384C60.4664 30.4612 60.0057 30.5342 60.1517 30.5661L60.4937 30.4202C60.5804 30.4202 60.553 30.4567 60.5439 30.4749C60.8358 30.4019 60.5576 30.3244 61.0136 30.2469C61.1231 30.069 61.9851 30.4019 62.5369 30.1465C62.6829 30.1739 62.4822 30.2469 62.5278 30.297C63.2986 30.0827 63.1891 30.1283 63.8094 29.8774L64.3703 29.8957C63.9508 29.841 64.4479 29.6403 64.872 29.4579C64.7215 29.4259 64.5938 29.3986 64.5117 29.3894L65.205 29.1933C65.2962 29.2025 65.2323 29.2663 65.1274 29.3484C65.173 29.3256 65.2141 29.3074 65.2506 29.2937C65.5105 29.3028 65.3965 29.4122 65.2323 29.5263C65.1411 29.508 65.0499 29.4943 64.9632 29.4761C64.8036 29.5947 64.6531 29.7224 64.7033 29.7999C64.7489 29.7771 64.8355 29.7452 64.9313 29.7224C64.8903 29.7543 64.8629 29.7817 64.8857 29.7908C64.9131 29.8045 64.9815 29.7589 65.0909 29.6996L65.2825 29.8364L65.3099 29.7634C65.3099 29.7634 65.547 29.7452 65.7842 29.7269C66.0213 29.7087 66.2585 29.6905 66.2585 29.6905C66.8924 29.3894 67.4169 29.0291 68.4248 28.6825C68.2014 28.8741 68.4248 28.8923 68.4477 29.0337C68.1238 28.9653 67.6541 29.3119 67.0977 29.4031C67.385 29.353 67.3394 29.4351 67.271 29.4761C67.271 29.4761 67.5081 29.3849 67.7407 29.2937C67.9733 29.1979 68.2059 29.1021 68.2059 29.1021C68.2151 29.2253 68.434 29.134 68.6985 29.1067C68.5708 29.02 68.7395 28.9334 68.9858 28.8422C69.2321 28.7418 69.5513 28.646 69.7338 28.5457C69.7839 28.6096 69.7155 28.7236 69.2367 28.8558C69.8204 28.8558 69.825 28.3724 70.3768 28.3268C70.2628 28.377 70.199 28.3861 70.1671 28.4408C70.4088 28.2812 71.0701 28.0623 70.9469 28.19L70.8375 28.2401C71.216 28.0942 71.7861 27.8388 72.2376 27.5378C72.6937 27.2459 73.0221 26.9221 73.0084 26.8035C73.0312 26.8172 73.0677 27.0589 73.0494 27.1228C73.0494 27.1228 73.2592 26.767 73.4097 26.393C73.4873 26.2106 73.542 26.0191 73.5922 25.8868C73.6332 25.75 73.656 25.6542 73.656 25.6542C73.6834 25.7545 73.8476 25.7819 73.9661 25.8503C74.0802 25.9142 74.1623 26.0419 73.9525 26.3337C74.0346 26.2699 74.1167 26.1924 74.2124 26.0829C74.3082 25.978 74.4085 25.8366 74.5089 25.636C74.404 25.7408 74.1121 25.7682 74.2033 25.6086C74.4268 25.4626 74.4998 25.3942 74.5682 25.3167C74.6411 25.2346 74.7232 25.148 74.933 24.8789C74.8008 25.0522 74.6822 24.7329 74.7871 24.441C74.8053 24.5003 75.047 24.5003 75.0288 24.628C75.0288 24.628 75.047 24.4046 75.0288 24.1856C75.0288 24.0762 75.0151 23.9713 75.0014 23.8892C74.9878 23.8117 74.9786 23.7569 74.9786 23.7569C74.9923 23.9622 75.1975 23.8345 75.2933 23.6429C75.266 23.684 75.2796 23.497 75.2933 23.2735C75.2933 23.1595 75.2888 23.0363 75.2842 22.9269C75.2751 22.8174 75.2568 22.7216 75.2432 22.6669C75.2432 22.6669 75.2432 22.7581 75.2386 22.8493C75.2386 22.9406 75.2204 23.0318 75.2204 23.0318C75.2021 22.5483 75.0425 22.3385 74.892 22.1515C74.7324 21.9646 74.5773 21.7958 74.3857 21.4127C74.4815 21.4766 74.8099 21.5039 74.6229 21.0706C74.5089 21.0159 74.2535 20.8928 73.9525 20.7468C73.6606 20.5963 73.314 20.4321 73.0358 20.2041L72.9947 20.0536L72.7667 19.8849C72.6481 19.8073 72.5295 19.7298 72.5295 19.7298C72.7256 19.7708 73.0768 19.8849 73.4417 20.0536C73.8065 20.2178 74.1714 20.4595 74.4085 20.6556C74.2535 20.3455 74.4359 20.5142 74.1121 20.1129C74.0528 19.9259 74.3812 20.2634 74.4678 20.3957C74.4678 20.3957 74.4268 20.3318 74.3629 20.2315C74.2945 20.1403 74.2033 20.0171 74.1121 19.894C74.0163 19.7754 73.9205 19.6568 73.8476 19.5702C73.7746 19.4789 73.7244 19.4288 73.7244 19.4288C73.6834 19.5018 73.4964 19.3649 73.3094 19.2327C73.1179 19.105 72.9309 18.9773 72.9035 19.0411C72.9035 19.0411 73.168 19.219 73.4234 19.4151C73.6834 19.6066 73.9251 19.8301 73.9251 19.8301C73.8339 19.9624 73.1179 19.5702 72.5158 19.0502C72.3973 18.8678 72.8123 18.9317 72.8351 18.8861C72.7211 18.8496 72.1647 18.4756 72.1236 18.4026L72.452 18.5486C72.1236 18.2156 71.7359 18.2704 71.362 17.8462C71.2115 17.7322 70.988 17.3764 70.915 17.4403C71.0883 17.755 70.8375 18.2567 70.6003 18.2704C70.5593 18.2202 69.8706 17.6455 69.7201 17.4722C69.5149 17.2077 70.2811 17.3901 70.1078 17.1621C70.0758 17.194 69.9025 17.1621 69.8341 17.1438C69.6791 17.0207 69.9709 17.0572 69.5787 16.8839C69.4465 16.9933 68.8079 16.4917 69.337 16.9158C68.9448 16.7744 68.9539 16.6969 68.5069 16.5008C68.6027 16.6558 67.9688 16.6467 67.5765 16.5418C67.613 16.5145 67.5492 16.4278 67.5173 16.3913C66.7419 16.0721 66.3406 15.8532 65.5926 15.616C65.5379 15.5567 65.1867 15.4016 65.36 15.3834C65.2414 15.3788 65.1274 15.4016 64.8948 15.3378C64.4844 15.0733 65.4193 15.4701 65.1229 15.2101C65.0681 15.2876 64.4844 15.1554 64.1332 15.1234C64.197 15.2876 64.8948 15.3606 65.2414 15.4062C65.1867 15.5978 64.5528 15.616 63.7455 15.5065C63.1116 15.3971 63.5038 15.315 63.3898 15.315C62.2131 15.0049 62.3134 15.4153 61.3557 15.0824C60.9863 14.8863 61.3831 14.8316 61.3146 14.7267C61.8437 14.7723 62.0945 14.9638 62.4457 15.0277L62.0261 14.8817C62.1994 14.8772 62.5506 14.9136 62.7285 14.9957C62.4275 14.7996 60.7172 14.5579 59.8005 14.3299C59.6272 14.3481 59.3353 14.3481 59.463 14.4211L59.7594 14.4484C60.0148 14.5898 59.1848 14.5077 59.5496 14.6081C59.1437 14.6263 58.6922 14.6765 58.1449 14.5625L58.0537 14.4074C58.0628 14.453 58.4095 14.5305 58.5691 14.5032C58.3319 14.5442 57.7345 14.2159 57.4608 14.3846L57.8394 14.5214C57.4335 14.5579 56.9363 14.6582 56.4483 14.5853C56.6627 14.7403 56.5624 14.5761 56.8998 14.7677C56.6171 14.5351 58.1495 14.8863 57.6889 14.6263C58.0264 14.8589 58.3 14.7677 58.7424 14.9912C58.7333 14.941 58.5873 14.8817 58.9932 14.9547C59.0115 14.9456 59.0571 14.9319 59.089 14.9228C59.1027 14.9228 59.1072 14.9228 59.1164 14.9273C59.1072 14.9273 59.1027 14.9228 59.0936 14.9182C59.1118 14.9182 59.1118 14.9136 59.0844 14.9182C58.9887 14.8863 58.9111 14.8498 58.8838 14.8224C59.1027 14.7358 59.7549 14.8316 59.9829 14.8133C60.2246 14.8726 59.8735 14.8498 59.9966 14.9228L60.3386 14.8908C60.3569 15.0003 60.9498 15.169 60.3751 15.1371L60.8859 15.2283C61.1778 15.3424 61.5837 15.4381 61.8437 15.4518C62.0763 15.5248 62.4731 15.4609 62.245 15.502C62.245 15.502 62.4457 15.5293 62.6464 15.5567C62.8471 15.5841 63.0477 15.616 63.0477 15.616V15.6434C63.8231 15.844 64.6987 15.8851 65.5105 16.3457C65.7751 16.4004 66.0487 16.4597 66.4637 16.6376L66.5139 16.7516C66.8514 16.8383 67.4443 17.2031 67.613 17.1712C67.8593 17.5315 69.109 17.8872 69.6061 18.2247L69.6836 18.129C70.0393 18.3342 70.3997 18.4984 70.8512 18.7401L70.8831 18.6352C71.3072 18.804 71.7861 19.333 72.3015 19.78C72.2422 19.78 72.1145 19.6614 72.037 19.561C72.2832 19.9122 72.6116 20.1676 72.9354 20.4367C73.2592 20.7012 73.5511 21.0022 73.6697 21.3489C73.7974 21.4766 73.8476 21.5997 73.8795 21.7183C73.8704 21.7046 73.8613 21.6909 73.8567 21.6818C73.8658 21.7 73.8749 21.7228 73.8886 21.7456C73.9114 21.8232 73.9251 21.9007 73.9388 21.9874C73.9388 21.9144 73.9297 21.8369 73.9069 21.7821C73.9433 21.8414 73.9753 21.9144 74.0163 21.9965C74.0619 22.0786 74.1075 22.1652 74.1486 22.2564L74.0665 22.3705C74.0665 22.3705 74.0756 22.3978 74.0847 22.4115C74.0939 22.5985 74.1714 22.5438 74.2352 22.4206C74.2763 22.5118 74.3173 22.5939 74.3629 22.6623C74.29 22.7581 74.3173 22.8767 74.3493 23.009C74.3675 23.1412 74.3949 23.2872 74.2808 23.3875C74.331 23.4514 74.331 23.6931 74.2991 23.9394C74.2763 24.1811 74.217 24.4228 74.2991 24.5186C74.2717 24.5186 74.2398 24.5687 74.2763 24.4638C74.1668 24.6691 74.0391 24.8561 73.9753 25.0613C73.9753 25.0613 73.9342 25.0613 73.8886 25.0613H73.802C73.802 25.0613 73.77 25.1936 73.7336 25.3213C73.7199 25.3897 73.6971 25.4535 73.6788 25.4991C73.6606 25.5493 73.6515 25.5812 73.6515 25.5812C73.3824 25.7682 73.2547 25.8138 73.3778 25.5219C73.1954 25.8503 73.0951 25.9689 73.0038 26.0692C72.9126 26.1741 72.8351 26.2653 72.6253 26.5253L72.5934 26.4295C72.4201 26.5755 72.1692 26.8719 72.0096 26.8856C71.7405 26.9403 71.1795 27.2505 70.4817 27.5332C69.7885 27.8205 68.963 28.0851 68.288 28.1854C68.4522 28.2812 68.288 28.2949 68.0919 28.3131C67.8912 28.3268 67.6495 28.3405 67.6495 28.4499C67.5583 28.4089 67.3668 28.418 67.5629 28.3085C66.9061 28.5366 66.5276 28.4454 66.0943 28.719C66.0031 28.6734 66.222 28.5959 66.1445 28.5731C66.0943 28.5959 65.9392 28.6734 65.8617 28.6506C65.7842 28.6278 65.9529 28.5776 66.0533 28.5275C65.36 28.6734 65.3235 28.8786 65.3053 29.0748C64.9313 29.0519 64.758 29.0884 64.5163 29.2526C64.384 29.2116 64.1651 29.1842 64.5984 29.0884C64.3521 29.1249 63.0797 29.2207 63.0705 29.3666C62.9884 29.3393 62.7239 29.4031 62.6601 29.4259C62.0991 29.4807 62.0489 29.4761 61.5016 29.5445L61.6567 29.5536C61.456 29.7543 61.2052 29.6403 60.7628 29.6996L60.7765 29.6813C59.7503 29.6357 60.3386 29.7817 59.3262 29.7041L59.39 29.8136C59.3125 30.0644 58.4915 29.7269 57.9123 29.8455L58.1267 29.9002C57.812 29.996 57.2191 29.6129 56.8998 29.5901C56.8269 29.5719 57.0093 29.5536 57.1051 29.5354C56.2659 29.4168 57.0002 29.6859 56.3799 29.7406C56.2613 29.6631 56.5213 29.5354 56.1017 29.5308C55.8919 29.4715 54.8886 29.809 54.3139 29.654C54.4416 29.7133 54.5647 29.7771 54.2774 29.8227C53.8305 29.8455 53.0779 29.581 52.672 29.768C52.6173 29.7497 52.5945 29.7315 52.5945 29.7178C52.2525 29.7589 51.4862 29.7725 51.2765 29.8638C50.98 29.4715 49.1511 29.955 49.1785 29.5901L48.1341 29.5399L48.1615 29.5035C47.4956 29.4305 47.2539 29.4943 47.0122 29.5582C46.8617 29.5217 46.9757 29.4989 46.9894 29.4807C46.0225 29.321 45.9267 29.3256 45.0921 29.4122L45.0191 29.2891C44.7911 29.3302 43.6372 28.9471 42.6749 28.9379C42.6886 28.9242 42.7068 28.906 42.7843 28.9014C41.6943 28.8878 40.2987 28.1717 39.8381 28.5092L39.1221 28.4727C40.016 28.6871 38.9488 28.6232 39.3091 28.7692C38.9488 28.7236 38.4152 28.4499 38.8575 28.5229L38.9214 28.5594C39.1266 28.3815 37.8177 28.2356 37.877 28.0896C36.1165 27.6883 34.461 27.0589 32.9514 26.3839L33.0608 26.6165C33.0608 26.6165 32.9286 26.5572 32.7963 26.4979C32.6641 26.4386 32.5318 26.3702 32.5318 26.3702C32.4132 26.2653 32.4041 26.1604 32.7735 26.3429C32.6185 26.165 32.1122 26.1194 32.0848 26.1422C31.4053 25.7044 32.4543 26.1103 32.2353 25.9917L31.9343 25.8457L31.9891 25.9005C31.7154 25.8366 31.6607 25.8914 31.2411 25.6314C30.9994 25.4353 31.1681 25.4535 31.0678 25.3851C31.0769 25.376 31.045 25.3486 30.9173 25.2802C30.9173 25.2802 30.8808 25.2574 30.8306 25.2164C30.7805 25.1753 30.7121 25.1206 30.6437 25.0659C30.5023 24.961 30.3791 24.8424 30.3791 24.8424C30.3791 24.8424 30.4065 24.9154 30.4384 24.9838C30.4703 25.0567 30.5068 25.1251 30.5068 25.1251C30.2195 24.9792 30.0051 24.6828 30.1511 25.0157C30.0416 24.774 29.5719 24.3042 29.321 23.766C29.1797 23.5015 29.1249 23.2279 29.093 22.9998C29.0884 22.7536 29.0839 22.5666 29.1021 22.4936C29.0656 22.3841 29.0611 22.2792 29.0611 22.1698C29.0611 22.0603 29.0611 21.9509 29.0702 21.8323C29.0702 21.7183 29.1112 21.6043 29.1386 21.4857C29.1705 21.3671 29.1979 21.244 29.2389 21.1208C29.1979 21.1755 29.1523 21.2166 29.1158 21.1847C29.0793 21.1527 29.0839 21.0478 29.1797 20.8289C29.2982 20.9657 29.394 20.7742 29.5399 20.5416C29.6175 20.4276 29.7041 20.2953 29.7862 20.1813C29.8729 20.0673 29.9869 19.9852 30.0827 19.9441C29.9322 20.0354 30.0964 19.7572 30.2879 19.52C30.4795 19.2828 30.6528 19.0548 30.3974 19.1779C30.6847 18.9089 30.4931 19.2372 30.7577 19.0867C31.346 18.3524 32.4132 17.8781 33.4303 17.3263C33.4303 17.2807 33.225 17.3172 33.4211 17.1438L34.0733 17.0709C34.274 16.9523 34.1737 16.7699 34.6252 16.7334C34.5568 16.7243 34.4519 16.7106 34.5933 16.6376C35.7061 16.291 36.8189 15.8942 37.9773 15.575C39.1312 15.2557 40.317 15.014 41.5165 15.0049C41.1881 14.9775 41.3979 14.9364 41.6396 14.8908C41.48 14.9 41.6259 14.7905 41.5849 14.7403H42.0866C42.3374 14.7403 42.5882 14.7449 42.5882 14.7449C42.7479 14.5625 43.6418 14.599 43.7284 14.4439L43.4183 14.5032C43.8196 14.2797 42.7889 14.1885 42.8163 13.9604C42.3739 14.2159 41.5256 13.8419 40.8004 14.2615C40.6226 14.2478 40.9327 14.1657 40.8323 14.1292C40.6545 14.2615 40.4219 14.3207 39.9795 14.3664L40.0251 14.3344C38.8074 14.6081 38.2647 14.6309 36.8873 14.9501L37.0196 15.0277C36.7231 15.0915 36.6547 15.0824 36.5088 15.0961C36.3674 15.2283 36.5726 15.169 36.7778 15.1098C36.9876 15.055 37.202 15.0003 37.0743 15.1326C36.8508 15.0778 36.34 15.2283 35.8429 15.388C35.3503 15.543 34.876 15.7163 34.7027 15.6434C34.2649 15.8075 34.876 15.7118 34.4382 15.8805L34.2968 15.8623L34.2238 15.99C33.9365 16.0949 33.7541 16.0721 33.7222 16.0265C33.7951 15.9991 33.9137 15.9307 33.9867 15.8942C33.5808 15.9717 32.9605 16.3868 32.8282 16.4324C32.8282 16.4324 32.9331 16.3913 33.0426 16.3457C33.1521 16.3047 33.257 16.2682 33.257 16.2682C32.9696 16.4141 32.6732 16.592 32.363 16.7516C32.062 16.9386 31.7428 17.1028 31.4509 17.3172C30.8489 17.7094 30.297 18.1974 29.9002 18.7082L30.0051 18.6717C29.7133 19.0639 29.5719 19.1962 29.4396 19.3604C29.3712 19.4379 29.2982 19.52 29.2025 19.634C29.1112 19.7526 29.0246 19.9259 28.8969 20.1676L28.906 20.1266C28.8923 20.1813 28.8695 20.236 28.8513 20.2953C28.833 20.3546 28.8148 20.423 28.7965 20.4869C28.7555 20.6191 28.7053 20.756 28.6506 20.8928C28.6734 20.756 28.5913 20.8609 28.5275 20.9703C28.4682 21.0752 28.4089 21.1801 28.4226 20.9886C28.377 21.2668 28.3542 21.4355 28.3405 21.5495C28.3314 21.6635 28.345 21.7228 28.3542 21.7684C28.377 21.8597 28.4134 21.9144 28.4727 22.2656C28.4682 22.2656 28.377 22.4206 28.3815 22.4252C28.4226 22.5438 28.4545 22.6076 28.4819 22.708C28.4955 22.7581 28.5047 22.8174 28.5183 22.8949C28.5275 22.9725 28.5366 23.0728 28.5685 23.2051C28.4955 22.9907 28.4773 23.0774 28.4545 23.164C28.4317 23.2507 28.4089 23.3373 28.3131 23.0774C28.3131 23.2324 28.3222 23.3829 28.345 23.5198C28.377 23.652 28.418 23.7752 28.4591 23.8892C28.564 24.1035 28.6643 24.286 28.7829 24.4228C28.8376 24.4958 28.8923 24.5642 28.9425 24.628C28.9927 24.6873 29.0428 24.7466 29.0884 24.8059C29.1751 24.9245 29.2389 25.0476 29.2845 25.189C29.5582 25.2939 29.3986 25.0978 29.2298 24.8834C29.1432 24.774 29.0565 24.6554 28.9972 24.5824C28.9471 24.5003 28.9288 24.4684 28.979 24.5231C28.9106 24.2769 29.3575 24.7785 29.5992 25.0203C29.7178 25.1525 29.7771 25.303 29.8911 25.5037C29.9459 25.6086 30.0234 25.7135 30.1328 25.8275C30.2377 25.9461 30.3791 26.0692 30.5707 26.1878C30.4977 26.1376 30.4795 26.1468 30.4065 26.0966C30.6528 26.3429 30.9994 26.3839 31.305 26.6712C31.574 26.6484 31.7656 26.9312 31.9115 26.7898C31.9115 26.7898 31.7291 26.7077 31.5467 26.6211C31.3642 26.539 31.1818 26.4432 31.1818 26.4432C31.606 26.6302 32.0757 26.6348 32.7051 27.027C32.6367 27.0361 32.4132 26.9996 32.2673 26.954C32.4406 27.0999 32.6641 27.0908 32.851 27.2368C32.7188 27.3827 31.9435 26.8902 31.4463 26.7716C31.6196 26.9631 32.3402 27.068 32.0301 27.141C32.4543 27.068 32.81 27.5332 33.4348 27.5697L33.3573 27.6609C33.4485 27.6792 33.6492 27.702 33.8134 27.7613L33.4713 27.7886C33.9639 27.8434 34.3059 28.2082 34.7666 28.2857C33.8499 27.9847 34.6024 28.0896 34.2466 27.8844C34.8304 27.9984 34.9672 28.1216 35.1223 28.2584C35.2774 28.3906 35.4461 28.5548 36.0892 28.7053C35.9113 28.6734 35.4598 28.4591 35.7426 28.4864C35.9797 28.5776 36.2853 28.7099 36.4221 28.8057C37.275 29.0018 36.3218 28.6597 36.7003 28.6916C36.9557 28.8969 37.129 28.7464 37.5121 28.792L37.4893 28.9014C38.438 29.2025 37.7995 28.7327 38.6478 29.0155L38.2464 29.0884L38.7116 29.1477L38.593 29.2526C39.1084 29.2617 39.2589 29.321 39.7378 29.4487C39.642 29.3484 39.8427 29.2572 40.2714 29.3347C40.5541 29.4533 40.0889 29.4122 40.7001 29.5035C40.5496 29.5491 40.3808 29.6129 40.1346 29.4579C40.1026 29.4898 39.9841 29.5035 39.9521 29.5308C40.2531 29.6676 40.7457 29.695 40.9692 29.7315C40.8825 29.7133 40.7822 29.6905 40.732 29.6631H41.6487C41.781 29.7224 41.667 29.7361 41.5484 29.7543C41.7308 29.7725 41.8631 29.7406 42.1322 29.7725C42.0501 29.8546 42.0501 29.9504 41.667 29.9322L42.5335 29.9595C42.5837 30.0051 42.9531 30.1328 42.8391 30.1465C43.3043 30.2651 44.0203 30.1283 44.6406 30.2697C44.6771 30.256 44.7409 30.2469 44.8777 30.2514C45.4661 30.3381 45.9769 30.5023 46.6883 30.443L47.0714 30.6391C47.6233 30.6482 46.5515 30.3882 47.4682 30.4019C48.1159 30.4019 47.7008 30.5616 47.9197 30.6254C48.2481 30.5661 48.8182 30.4384 49.402 30.6072C49.2013 30.6254 49.0508 30.5935 48.8638 30.5935L48.8912 30.6072ZM55.6684 30.7029C55.5362 30.7303 55.2762 30.8033 55.1804 30.7394C55.331 30.6072 55.445 30.671 55.6684 30.7029ZM65.8891 29.5035C65.7979 29.5582 65.6474 29.5673 65.474 29.5582C65.5926 29.5263 65.734 29.5035 65.8891 29.5035ZM61.3238 15.2511C61.3238 15.2511 61.3329 15.2511 61.3375 15.2511C61.6111 15.3469 61.5153 15.3104 61.3238 15.2511ZM60.7446 15.0961C60.6853 15.1006 60.6853 15.1189 60.7081 15.1371C60.7537 15.1189 60.8859 15.1371 61.0364 15.1736C61 15.1371 60.927 15.1006 60.7491 15.0961H60.7446ZM31.0176 25.3942L31.0952 25.4809C30.8671 25.3669 30.9401 25.3806 31.0176 25.3942Z" fill="white"/>
<path d="M64.7671 29.8546C64.726 29.8409 64.7124 29.8227 64.7032 29.8044C64.6531 29.8318 64.6576 29.8546 64.7671 29.8546Z" fill="white"/>
<path d="M44.6862 30.2878H44.6679C44.6679 30.2878 44.6497 30.297 44.6451 30.3015L44.6907 30.2878H44.6862Z" fill="white"/>
<path d="M69.9344 17.0208C70.0393 17.0937 70.0941 17.1439 70.126 17.1849C70.1442 17.1621 70.1078 17.1165 69.9344 17.0208Z" fill="white"/>
<path d="M57.5931 14.8727L57.9762 14.8818C57.7938 14.8681 57.73 14.8362 57.6387 14.8088C57.6433 14.8362 57.7117 14.8818 57.5931 14.8727Z" fill="white"/>
<path d="M54.3002 13.9832C54.2455 13.9968 54.1816 13.9832 54.1223 13.9968L54.136 14.0516C54.3777 14.0516 54.5465 14.0151 54.3002 13.9877V13.9832Z" fill="white"/>
<path d="M57.2739 14.4667C57.2511 14.371 57.0094 14.3755 56.7357 14.3755C56.754 14.3755 56.7676 14.3755 56.7813 14.3755C56.6947 14.5032 56.982 14.4759 57.2693 14.4622L57.2739 14.4667Z" fill="white"/>
<path d="M56.6718 14.3755C56.5898 14.3755 56.5031 14.3709 56.421 14.3618C56.3845 14.412 56.5213 14.3801 56.6718 14.3755Z" fill="white"/>
<path d="M59.992 15.0367C59.8689 14.9957 59.8962 15.1462 59.8278 15.096C59.6682 15.1918 60.6852 15.0778 59.992 15.0367Z" fill="white"/>
<path d="M57.0823 14.1338L57.1689 14.2615L57.3286 14.1794L57.0823 14.1338Z" fill="white"/>
<path d="M59.1985 14.4485L58.7743 14.3618C58.7743 14.3618 58.7242 14.3846 58.6558 14.3892C58.9203 14.4257 59.2076 14.485 59.203 14.4485H59.1985Z" fill="white"/>
<path d="M58.6557 14.3846C58.5189 14.3664 58.3866 14.3572 58.3091 14.3664C58.3821 14.3755 58.5462 14.3846 58.6557 14.3846Z" fill="white"/>
<path d="M57.6752 14.1521L57.7983 14.1886L58.1039 14.2296L57.6752 14.1521Z" fill="white"/>
<path d="M63.7592 15.3377C63.7592 15.3377 63.8778 15.3605 63.9918 15.3787C64.1058 15.4015 64.2244 15.4243 64.2244 15.4243C64.2791 15.397 64.1651 15.3422 63.9918 15.3103C63.8732 15.3103 63.6999 15.2829 63.7592 15.3377Z" fill="white"/>
<path d="M62.4366 14.6994C62.5552 14.7496 62.5598 14.7769 62.6236 14.8316L62.6692 14.6948L62.4366 14.7039V14.6994Z" fill="white"/>
<path d="M63.7956 14.982C63.8504 14.9546 64.498 15.0413 63.9051 14.8999C63.8504 14.9273 63.3761 14.8452 63.7956 14.982Z" fill="white"/>
<path d="M70.3951 17.7229L70.2902 17.6682L70.1898 17.8826L70.3951 17.7229Z" fill="white"/>
<path d="M75.2659 21.9829C75.1975 21.6636 75.1336 21.6499 75.0926 21.6317C75.047 21.618 75.0151 21.6089 74.9284 21.3353C74.8235 21.2258 75.0652 21.7777 74.9558 21.6591C75.1519 21.9829 75.1656 22.1972 75.2659 21.9783V21.9829Z" fill="white"/>
<path d="M74.9559 21.6635C74.9239 21.6134 74.8874 21.5586 74.851 21.5039C74.9057 21.5951 74.9376 21.6362 74.9559 21.6635Z" fill="white"/>
<path d="M43.2952 14.7951L43.6555 14.8042L43.4183 14.7495L43.2952 14.7951Z" fill="white"/>
<path d="M43.9564 14.5442L44.0522 14.6856L44.2483 14.5305C44.1753 14.5442 44.0203 14.5716 43.9564 14.5442Z" fill="white"/>
<path d="M56.6855 30.9857L56.7129 30.9493C56.6582 30.9128 56.5715 30.9128 56.3982 30.9082L56.6855 30.9857Z" fill="white"/>
<path d="M51.7553 30.8627L51.8374 30.8672L51.6824 30.7258L51.7553 30.8627Z" fill="white"/>
<path d="M47.6096 30.8079C47.7784 30.8307 47.9791 30.8079 48.1478 30.8307C47.7784 30.8307 47.5777 30.6345 47.6096 30.8079Z" fill="white"/>
<path d="M18.5623 73.8111C19.0594 74.3311 19.6705 74.7279 20.2725 75.1201C20.8472 75.4986 21.4355 75.9638 22.0695 76.2329C22.5894 76.4518 23.2233 76.4108 23.57 75.9501C23.9348 75.4667 23.2963 74.7871 22.9907 74.4816C22.3705 73.8613 21.7274 73.2547 21.0707 72.6801C20.8061 72.4475 20.4139 72.2012 20.2406 71.8911C20.154 71.7314 20.0901 71.5673 20.0491 71.3985C20.7423 69.068 21.3352 66.6964 21.4948 64.2655C21.5906 62.8061 21.6043 61.3238 21.5359 59.8598C21.4675 58.4962 21.2257 57.2283 20.829 55.933C20.829 55.9239 20.8381 55.9148 20.8381 55.9057C20.8518 55.8464 20.8016 55.7962 20.7423 55.8099C20.6784 55.8236 20.61 55.8874 20.5553 55.9285C20.4687 55.9923 20.382 56.0516 20.2953 56.1155C20.1585 56.2204 20.0354 56.3481 19.894 56.4575C19.821 56.5122 19.821 56.5943 19.8575 56.6491C19.8712 56.8589 19.9396 57.0459 19.9715 57.2602C20.0308 57.6524 20.0627 58.0492 20.0992 58.446C20.154 59.0161 20.2817 59.5862 20.2817 60.1563C20.2817 61.374 20.3729 62.6008 20.2361 63.814C20.0719 65.2597 19.9168 66.6918 19.6112 68.1148C19.4698 68.7852 19.2874 69.4419 19.0503 70.0896C18.9271 70.4179 18.7903 70.7372 18.6717 71.0565C17.8006 71.6813 17.8508 73.0723 18.5623 73.8157V73.8111Z" fill="#EFCAA6"/>
<path d="M4.73859 73.5831C4.75227 74.1167 4.69298 74.8328 5.02136 75.3025C5.28588 75.6856 6.02016 76.0049 6.3759 75.5351C6.759 75.0335 6.8867 74.4542 7.0372 73.8522C7.24244 73.0541 7.32453 72.2377 7.42487 71.4213C7.48872 70.906 7.53433 70.3815 7.65747 69.8753C7.65747 69.857 7.67115 69.8388 7.67571 69.8205C8.02233 69.515 8.36894 69.2048 8.74292 68.9266C9.44072 68.4067 10.1066 67.832 10.7177 67.2118C11.1556 66.7648 11.5843 66.3088 11.9947 65.839C13.4268 64.2063 14.7266 62.3956 15.584 60.3889C15.8531 59.7641 16.072 59.08 16.1952 58.4141C16.2453 58.1313 16.332 57.7209 16.2864 57.3834C16.3046 57.3697 16.3183 57.3423 16.3092 57.3104C16.2362 57.0094 15.8759 56.7084 15.5704 56.6765C15.3742 56.6537 15.0641 56.64 14.9227 56.795C14.9045 56.7905 14.8817 56.795 14.8771 56.827C14.8771 56.8452 14.8771 56.8635 14.868 56.8817C14.8589 56.9045 14.8498 56.9319 14.8452 56.9592C14.8452 56.982 14.8452 57.0003 14.8498 57.0185C14.7722 57.6023 14.6126 58.1724 14.4074 58.7242C14.0972 59.5588 13.7141 60.3707 13.29 61.1551C12.916 61.8438 12.5055 62.5097 12.054 63.1482C10.8226 64.8949 9.29933 66.3726 7.70763 67.791C7.30629 68.1467 6.8639 68.4751 6.44887 68.8263C6.21171 68.9357 5.96999 69.0634 5.77844 69.2139C5.25851 69.6244 4.98031 70.2492 4.91646 70.8923C4.82524 71.7816 4.71123 72.6892 4.73403 73.5831H4.73859Z" fill="#EFCAA6"/>
<g style="mix-blend-mode:multiply" opacity="0.7">
<path d="M18.4618 71.2389C18.7948 72.0827 19.4971 72.817 20.2588 73.3095C20.5871 73.5239 21.0615 73.8659 21.4628 73.6607C21.6452 73.5695 21.6726 73.3779 21.627 73.1681C22.0922 73.5923 22.5483 74.0301 22.9952 74.4771C23.3008 74.7826 23.9393 75.4622 23.5744 75.9456C23.2278 76.4063 22.5939 76.4519 22.0739 76.2284C21.44 75.9593 20.8562 75.4941 20.277 75.1156C19.675 74.7233 19.0638 74.3266 18.5667 73.8066C17.9191 73.1271 17.8233 71.9185 18.4618 71.2344V71.2389Z" fill="#EFCAA6"/>
</g>
<g style="mix-blend-mode:multiply" opacity="0.7">
<path d="M21.4401 58.7517C21.0068 58.7745 20.5735 58.7927 20.1448 58.8474C20.1266 58.7106 20.1083 58.5738 20.0947 58.437C20.0582 58.0402 20.0263 57.6434 19.967 57.2512C19.935 57.0368 19.8666 56.8544 19.8529 56.64C19.8165 56.5853 19.8165 56.5078 19.8894 56.4485C20.0263 56.339 20.1494 56.2159 20.2908 56.1064C20.3774 56.0426 20.4641 55.9787 20.5507 55.9194C20.6055 55.8784 20.6739 55.8145 20.7377 55.8009C20.797 55.7872 20.8472 55.8373 20.8335 55.8966C20.8335 55.9058 20.8289 55.9149 20.8244 55.924C21.1117 56.8635 21.3215 57.7893 21.4355 58.7471L21.4401 58.7517Z" fill="#EFCAA6"/>
</g>
<g style="mix-blend-mode:multiply" opacity="0.7">
<path d="M4.92563 70.8924C4.98948 70.2494 5.26768 69.62 5.78761 69.2141C5.91075 69.1183 6.05669 69.0316 6.20264 68.9541C6.01108 69.506 5.97916 70.1125 5.95636 70.6963C5.92443 71.5036 5.70551 72.4659 6.11142 73.2093C6.38963 73.7155 6.8229 73.4692 7.20144 73.0633C7.15583 73.3279 7.10566 73.5924 7.03725 73.8569C6.88219 74.4544 6.75905 75.0381 6.37594 75.5398C6.01565 76.0096 5.28593 75.6903 5.0214 75.3072C4.69303 74.8375 4.75232 74.126 4.73864 73.5878C4.72039 72.6939 4.83441 71.7863 4.92107 70.897L4.92563 70.8924Z" fill="#EFCAA6"/>
</g>
<g style="mix-blend-mode:multiply" opacity="0.7">
<path d="M16.1997 58.4097C16.1496 58.6834 16.0812 58.9616 15.9991 59.2398C15.429 59.2398 14.8406 59.1349 14.2797 59.071C14.3253 58.9524 14.3754 58.8384 14.4165 58.7198C14.6217 58.168 14.7813 57.5979 14.8589 57.0141C14.8543 56.9959 14.8498 56.9776 14.8543 56.9548C14.8543 56.9229 14.868 56.9001 14.8771 56.8773C14.8771 56.8591 14.8817 56.8408 14.8862 56.8226C14.8862 56.7952 14.9136 56.7861 14.9319 56.7906C15.0732 56.6356 15.3879 56.6493 15.5795 56.6721C15.885 56.704 16.2453 57.005 16.3183 57.306C16.3274 57.3379 16.3183 57.3607 16.2955 57.379C16.3411 57.7165 16.2545 58.1269 16.2043 58.4097H16.1997Z" fill="#EFCAA6"/>
</g>
<path d="M18.4391 71.2619C18.398 71.4352 18.3707 71.6085 18.4163 71.8183C18.4847 72.1147 18.7629 72.4614 18.9772 72.6757C19.5929 73.2869 20.3865 73.7521 21.1755 74.1078C21.6133 74.3085 22.001 73.898 21.8186 73.451C21.7912 73.3826 21.7593 73.3188 21.7228 73.2595C22.1561 73.6563 22.5802 74.0622 22.9907 74.4772C23.2963 74.7828 23.9348 75.4623 23.5699 75.9458C23.2233 76.4064 22.5893 76.452 22.0694 76.2285C21.4355 75.9594 20.8517 75.4943 20.2725 75.1157C19.6705 74.7235 19.0593 74.3267 18.5622 73.8068C17.9191 73.1363 17.8188 71.946 18.4391 71.2573V71.2619Z" fill="#E2635A"/>
<path d="M4.92563 70.8924C4.98948 70.2493 5.26768 69.62 5.78761 69.214C5.8469 69.1684 5.91531 69.1228 5.97916 69.0818C5.82409 69.5926 5.76024 70.1353 5.72376 70.6872C5.66903 71.5492 5.3817 72.89 6.10686 73.5513C6.49908 73.9116 6.8457 73.7748 7.13303 73.4373C7.10566 73.5741 7.07374 73.7155 7.03725 73.8523C6.88219 74.4498 6.75905 75.0336 6.37594 75.5352C6.01565 76.005 5.28593 75.6857 5.0214 75.3026C4.69303 74.8329 4.75232 74.1214 4.73864 73.5832C4.72039 72.6893 4.83441 71.7817 4.92107 70.8924H4.92563Z" fill="#E2635A"/>
<path d="M21.4126 75.6765C22.0557 76.0368 22.8265 76.4701 23.4194 76.0779C23.433 76.0687 23.4513 76.0642 23.465 76.0596C23.1047 76.4108 22.5391 76.4336 22.0694 76.2329C21.4354 75.9638 20.8517 75.4986 20.2725 75.1201C19.6704 74.7279 19.0593 74.3311 18.5622 73.8112C18.2429 73.4782 18.0605 73.0222 18.0286 72.5615C18.2429 73.6242 20.1311 74.9605 21.4081 75.6765H21.4126Z" fill="#CE3F4D"/>
<path d="M4.92558 70.8923C4.95295 70.6415 5.01224 70.3952 5.10345 70.1626C4.86173 71.093 4.88454 72.2104 4.86173 73.0176C4.83893 73.8294 4.86173 75.0152 5.46375 75.6629C5.28588 75.5762 5.1217 75.4485 5.02592 75.3071C4.69755 74.8374 4.75684 74.1259 4.74315 73.5877C4.72491 72.6938 4.83893 71.7862 4.92558 70.8969V70.8923Z" fill="#CE3F4D"/>
<path d="M2.35788 54.5421C2.5768 54.4098 2.64521 54.0358 2.72274 53.8215C2.74555 53.7576 2.76835 53.6938 2.79115 53.6254C2.76835 53.8534 2.76379 54.086 2.76835 54.3186C2.76835 54.5193 2.71818 54.8294 2.82764 55.0118C2.97814 55.2627 3.27003 55.0027 3.32476 54.8294C3.46158 54.3916 3.59841 53.9583 3.74435 53.5296C3.70786 53.7348 3.6805 53.9446 3.67594 54.1544C3.67594 54.3733 3.52999 55.6412 3.92678 55.6959C4.35549 55.7507 4.32812 55.2079 4.36005 54.9069C4.40566 54.4737 4.47407 54.0449 4.50599 53.6117C4.50599 53.5661 4.51511 53.5205 4.51968 53.4749C4.5288 53.5843 4.53336 53.6892 4.54704 53.7941C4.60177 54.346 4.62457 55.0073 4.95751 55.477C5.07153 55.6366 5.3999 56.0745 5.59601 55.737C5.79668 55.3858 5.60513 54.6652 5.51848 54.3095C5.42726 53.9355 5.25395 53.484 5.27676 53.0963C5.31781 52.4441 5.89246 52.923 6.08401 53.1966C6.18435 53.3426 6.28468 53.484 6.38502 53.6299C6.46711 53.7485 6.93687 54.0951 7.00528 53.7439C7.09193 53.2924 6.79093 52.663 6.5264 52.3073C6.26644 51.9561 5.87422 51.6323 5.45463 51.4772C5.50024 51.2355 5.54584 50.9892 5.61425 50.7521C5.74652 50.3051 5.90158 49.8627 6.06121 49.4295C6.38502 48.5538 6.71339 47.6736 7.10562 46.8207C7.85358 45.1834 8.44648 43.4458 9.60946 42.0411C9.61403 42.0319 9.61859 42.0274 9.61859 42.0183C9.61859 42.0183 9.62315 42.0183 9.62771 42.0183C9.71892 41.9772 9.65963 41.8541 9.5821 41.8495C9.56842 41.8495 9.46808 41.7081 9.44984 41.6945C9.36774 41.6124 9.28565 41.5394 9.199 41.4664C9.08498 41.3661 8.94816 41.2156 8.78853 41.2156C8.74749 41.2156 8.711 41.2338 8.68363 41.2657C8.68363 41.2657 8.67907 41.2657 8.67451 41.2657C8.37806 41.4938 8.20932 41.7902 8.00408 42.1004C7.69851 42.5564 7.42943 43.0399 7.17859 43.5279C6.7362 44.4035 6.31661 45.3202 5.96999 46.237C5.64162 47.1126 5.26308 47.9609 4.94839 48.8457C4.8891 49.0099 4.83893 49.1832 4.78876 49.3519C4.66106 49.6894 4.5744 50.0543 4.45583 50.3781C4.34181 50.6837 4.22323 51.1443 3.92222 51.3359C3.73067 51.459 3.52543 51.5502 3.31564 51.6369C2.5996 51.9333 2.24386 52.5809 2.066 53.3015C2.03407 53.4384 1.81972 54.8796 2.37613 54.5466L2.35788 54.5421Z" fill="#EFCAA6"/>
<g style="mix-blend-mode:multiply" opacity="0.7">
<path d="M9.61855 42.0182C9.61855 42.0182 9.61399 42.0182 9.60943 42.0182C9.60943 42.0273 9.60943 42.0319 9.60031 42.041C9.32211 42.3785 9.07583 42.7388 8.85235 43.1082C8.51942 42.8482 8.1728 42.602 7.8125 42.3694C7.87179 42.2782 7.92652 42.1869 7.99037 42.0957C8.20016 41.7856 8.36435 41.4937 8.6608 41.2611C8.6608 41.2611 8.66536 41.2611 8.66992 41.2611C8.69728 41.2337 8.72921 41.2109 8.77482 41.2109C8.939 41.2109 9.07127 41.366 9.18528 41.4618C9.27194 41.5348 9.35859 41.6123 9.43613 41.6898C9.45437 41.7035 9.5547 41.8449 9.56839 41.8449C9.64592 41.854 9.70977 41.9726 9.61399 42.0136L9.61855 42.0182Z" fill="#EFCAA6"/>
</g>
<path d="M22.5482 37.5623C22.5482 37.5623 22.5938 37.535 22.6258 37.535C23.3418 37.5578 24.2175 37.69 24.8879 37.4027C25.686 37.0607 26.101 36.2853 26.5389 35.5875C26.922 34.9764 27.1637 34.2193 27.3963 33.5352C27.524 33.1521 27.5605 32.7188 27.6061 32.3175C27.6334 32.0621 27.6198 31.866 27.5787 31.6607C27.4966 31.6106 27.4191 31.5422 27.3416 31.4646C27.0998 31.2047 27.0634 30.8489 27.0725 30.5023C27.0497 30.3974 27.036 30.288 27.0223 30.1785C26.9676 29.6312 27.1546 29.0748 27.3644 28.5777C27.597 28.0304 27.8478 27.4603 28.2583 27.0225C28.8101 26.4341 29.891 26.4524 30.2057 27.2186C30.5158 27.2049 30.8077 27.3463 30.94 27.6518C31.2684 27.7203 31.5238 27.9437 31.5739 28.3086C31.6834 28.3496 31.7609 28.45 31.8156 28.5457C31.9616 28.7966 31.9388 29.1478 31.8202 29.3986C31.656 29.7635 31.1726 30.1192 30.7439 30.0918C30.7484 30.6939 30.5523 31.4099 30.0643 31.7155C29.6949 31.9481 29.248 31.9435 28.874 31.7748C28.8056 32.1715 28.801 32.582 28.6915 32.9742C28.5456 33.4896 28.4817 34.046 28.3404 34.5705C28.0713 35.5693 27.8387 36.4906 27.2823 37.3708C26.7487 38.2145 25.9688 38.666 25.0566 39.0035C24.6051 39.1677 23.9803 39.0628 23.5197 39.0127C23.2232 38.9807 22.9176 38.9306 22.6212 38.8713C22.5938 38.4334 22.571 38.0002 22.5528 37.5669L22.5482 37.5623Z" fill="#EFCAA6"/>
<g style="mix-blend-mode:multiply" opacity="0.7">
<path d="M22.6258 37.5352C22.9861 37.5443 23.3829 37.5853 23.7751 37.5853C23.7979 38.0779 23.8937 38.5704 23.9621 39.0584C23.8071 39.0402 23.6566 39.022 23.5197 39.0083C23.2233 38.9763 22.9177 38.9262 22.6213 38.8669C22.5939 38.4291 22.5711 37.9958 22.5529 37.5625C22.5711 37.5488 22.5985 37.5352 22.6304 37.5352H22.6258Z" fill="#EFCAA6"/>
</g>
<g opacity="0.5">
<path d="M29.2388 28.1079C29.3392 28.2767 29.2479 28.4682 29.1157 28.6324C29.1339 28.6324 29.1522 28.6506 29.1522 28.6734C29.1522 28.9745 29.1157 29.2755 29.1841 29.5719C29.5626 29.7315 29.8135 29.6677 29.9321 29.3895C30.0461 29.2025 30.1099 28.9881 30.1738 28.7829C30.3608 28.1626 30.2422 27.5196 29.9321 26.9769C29.9229 26.9586 29.9412 26.9358 29.9594 26.9495C30.7211 27.4831 30.3425 28.9334 29.9594 29.581C29.9685 29.5765 29.9777 29.5719 29.9914 29.5765C30.4429 29.7042 30.7256 29.0109 30.826 28.6962C30.9628 28.2721 30.867 27.9528 30.7986 27.5378C30.7986 27.5059 30.8305 27.4877 30.8488 27.515C31.1726 27.9893 31.0312 28.6142 30.8214 29.1113C30.7211 29.353 30.2239 30.0234 29.9503 29.6358C29.9503 29.6312 29.9457 29.6221 29.9457 29.613C29.7633 29.9048 29.5262 30.0827 29.2069 29.8866C28.9196 29.7087 29.0382 28.9699 29.0655 28.6962C28.9743 28.792 28.8785 28.8696 28.8101 28.9243C28.5821 29.0976 28.2446 29.3256 28.3039 29.6814C28.3176 29.7726 28.4316 29.9459 28.4681 30.0462C28.5137 30.1739 28.5137 30.2651 28.4498 30.3928C28.4361 30.4157 28.4042 30.3974 28.4133 30.3746C28.5 30.1283 28.2172 29.8273 28.1671 29.5765C28.1306 29.3986 28.2537 29.2572 28.3632 29.1341C28.4681 29.0109 28.5958 28.9015 28.7189 28.792C28.7873 28.7373 28.8557 28.678 28.9196 28.6233C29.1795 28.3816 29.1202 28.1809 28.7371 28.0167C28.199 28.003 27.7976 28.5457 27.5194 28.9288C27.4921 28.9653 27.4236 28.9471 27.4419 28.8969C27.638 28.3542 28.7599 27.287 29.2525 28.1034L29.2388 28.1079Z" fill="#D69372"/>
<path d="M30.4337 29.6677C30.8305 29.8182 30.9901 29.5628 31.1908 29.2755C31.3687 29.0246 31.3778 28.7327 31.4827 28.4591C31.4964 28.4272 31.542 28.4317 31.542 28.4682C31.5648 28.9243 31.4234 29.2572 31.1497 29.6175C30.9719 29.8501 30.5842 30.0554 30.379 29.7407C30.3562 29.7087 30.3927 29.654 30.4337 29.6677Z" fill="#D69372"/>
<path d="M30.6754 29.9276C31.0038 30.0735 31.3139 29.9093 31.5511 29.6722C31.8293 29.3849 31.8111 28.9972 31.7746 28.6323C31.7746 28.6232 31.7883 28.6187 31.7928 28.6278C32.0482 29.061 31.8931 29.581 31.5283 29.8911C31.3048 30.0827 30.8305 30.3198 30.607 29.996C30.5751 29.9504 30.6344 29.9093 30.6709 29.9276H30.6754Z" fill="#D69372"/>
</g>
<path d="M27.036 24.7968L29.102 27.9209C29.0655 27.8935 29.0245 27.8844 28.9789 27.8844C28.7828 27.8023 28.5456 27.8343 28.3586 27.9437C28.3085 27.962 28.2583 27.9848 28.2081 28.0076L26.3929 25.2255L27.0314 24.7922L27.036 24.7968Z" fill="#EAE3DC"/>
<g style="mix-blend-mode:multiply">
<path d="M28.2446 27.4741C28.3449 27.6018 28.4407 27.7386 28.5411 27.8708C28.4772 27.8891 28.4134 27.9119 28.3586 27.9438C28.3085 27.9621 28.2583 27.9849 28.2081 28.0077L26.3929 25.2256L26.6027 25.0842C27.0999 25.9052 27.6654 26.717 28.2446 27.4695V27.4741Z" fill="#EAE3DC"/>
</g>
<path d="M29.0108 29.2755L28.801 28.9061C28.801 28.9061 28.8193 28.897 28.833 28.8879C28.8512 28.8742 28.8694 28.8651 28.8877 28.8514C28.9561 28.8012 29.0199 28.7374 29.0701 28.6689C29.0655 28.8696 29.0199 29.0703 29.0154 29.2755H29.0108Z" fill="#EAE3DC"/>
<g style="mix-blend-mode:multiply">
<path d="M29.0063 29.271L28.7965 28.9107C28.7965 28.9107 28.8148 28.9016 28.8284 28.8925C28.8467 28.8788 28.8649 28.8697 28.8832 28.856C28.9516 28.8058 29.0154 28.742 29.0656 28.6736C29.061 28.8743 29.0109 29.0704 29.0063 29.271Z" fill="#EAE3DC"/>
</g>
<path d="M29.9322 29.5903C29.955 29.6314 29.9869 29.6679 30.0279 29.6952C30.0964 29.7408 30.2013 29.75 30.2833 29.718L31.3642 31.3553L30.6984 31.7932L29.4989 29.9689C29.6813 29.9415 29.8273 29.7819 29.9322 29.5903Z" fill="#EAE3DC"/>
<g style="mix-blend-mode:multiply">
<path d="M29.7953 29.7908C30.1602 30.411 30.6208 30.9811 31.0769 31.5467L30.7029 31.7929L29.5034 29.9686C29.6174 29.9504 29.7132 29.882 29.7999 29.7908H29.7953Z" fill="#EAE3DC"/>
</g>
<path d="M7.66655 41.3752C8.56958 40.0435 9.5547 38.7254 11.0141 37.9638C11.7256 37.5898 12.3915 37.2979 13.1759 37.1383C13.3629 37.1018 13.5453 37.0516 13.7323 37.006C14.3891 37.0972 15.1279 37.006 15.7071 36.9467C16.373 36.8829 17.1483 36.7597 17.8188 36.4861C18.6944 36.5727 19.5655 36.7004 20.4366 36.8099C20.9429 36.8737 21.4491 36.8829 21.9599 36.933C22.188 36.9558 22.416 36.9878 22.6486 37.006C22.8082 37.0151 22.9678 36.9923 23.1229 37.0197C23.132 37.6673 23.0545 38.3241 23.1229 38.9717C23.1503 39.2317 23.1822 39.4871 23.2278 39.7425C23.205 39.7561 23.1776 39.7698 23.1457 39.7744C22.9724 39.8109 22.0329 39.6376 21.782 39.5965C21.4126 39.5327 21.0432 39.4688 20.6829 39.3958C20.9748 39.9431 21.2302 40.5087 21.513 41.0651C22.0648 42.1596 22.4525 43.3546 22.9222 44.4856C23.3418 45.4981 23.6839 46.5425 24.0259 47.5824C24.2038 48.116 24.3133 48.6815 24.4364 49.2288C24.5504 49.7487 24.7602 50.2732 24.8241 50.8023C24.8377 50.9117 24.7465 50.9573 24.6599 50.9436C24.4364 51.1717 24.0351 51.3039 23.766 51.4225C23.2141 51.6734 22.7079 52.0017 22.1423 52.2298C21.0204 52.6858 19.9121 53.1328 18.7674 53.5341C17.6591 53.9218 16.519 54.1863 15.3514 54.2867C14.7767 54.3368 14.1246 54.3642 13.5545 54.273C12.9753 54.1818 12.3915 53.9492 11.8123 53.9036C11.6663 53.8899 11.6162 53.7439 11.6618 53.6482C11.5705 53.3654 11.5614 53.0233 11.5569 52.7406C11.5386 52.1112 11.5295 48.5766 11.5341 47.4273C11.5341 45.3567 11.379 43.2907 11.3288 41.2201C11.2376 41.3068 11.1464 41.3934 11.0597 41.4801C10.7815 41.7492 10.5079 42.0228 10.2297 42.2919C10.0792 42.4379 9.90131 42.675 9.728 42.7845C9.66871 42.821 9.60486 42.8255 9.54101 42.8164C9.30386 42.6385 9.08038 42.447 8.84322 42.2645C8.57414 42.0548 8.27769 41.886 7.99492 41.7036C7.88546 41.6078 7.77145 41.5075 7.66199 41.4026C7.66199 41.3934 7.66655 41.3798 7.67567 41.3706L7.66655 41.3752Z" fill="#36D1D7"/>
<g style="mix-blend-mode:multiply" opacity="0.5">
<path d="M23.2187 39.7379C23.2187 39.7379 23.1685 39.7652 23.1366 39.7698C22.9633 39.8063 22.0238 39.633 21.7729 39.5919C21.4035 39.5281 21.0341 39.4642 20.6738 39.3913C20.765 39.5646 20.8516 39.7379 20.9383 39.9112C20.6099 39.4323 20.1721 38.8759 19.9988 38.3286C20.7604 38.6935 21.9462 38.9854 22.1332 37.8725C22.1834 37.5715 22.1469 37.2568 22.0511 36.9421C22.2518 36.9649 22.4479 36.9877 22.6486 37.0014C22.8082 37.0105 22.9678 36.9877 23.1229 37.0151C23.132 37.6627 23.0545 38.3195 23.1229 38.9671C23.1503 39.2271 23.1822 39.4825 23.2278 39.7379H23.2187Z" fill="#36D1D7"/>
</g>
<g style="mix-blend-mode:multiply" opacity="0.5">
<path d="M7.65283 41.4071C7.76229 41.512 7.87175 41.6077 7.98577 41.7081C8.26853 41.8905 8.56498 42.0593 8.83406 42.2691C9.06666 42.4515 9.2947 42.643 9.53186 42.8209C9.59571 42.8346 9.65956 42.8255 9.71885 42.789C9.89672 42.6795 10.0746 42.4424 10.2205 42.2964C10.4987 42.0273 10.7724 41.7537 11.0506 41.4846C11.1372 41.398 11.2285 41.3113 11.3197 41.2246C11.3744 43.2952 11.5295 45.3612 11.5249 47.4318C11.5249 48.5766 11.5295 52.1157 11.5477 52.7451C11.5568 53.0278 11.5614 53.3699 11.6526 53.6527C11.607 53.753 11.6572 53.8989 11.8031 53.9081C12.3823 53.9537 12.9661 54.1863 13.5453 54.2775C14.1154 54.3687 14.7676 54.3413 15.3422 54.2912C16.5098 54.1908 17.65 53.9263 18.7582 53.5387C19.903 53.1373 21.0112 52.6949 22.1332 52.2343C22.6942 52.0062 23.205 51.6733 23.7568 51.427C24.0259 51.3039 24.4227 51.1762 24.6507 50.9481C24.7374 50.9618 24.824 50.9162 24.8149 50.8068C24.8149 50.7931 24.8149 50.784 24.8104 50.7703C24.6963 50.8341 24.5641 50.8752 24.409 50.8752C23.2597 50.8752 22.8948 48.8958 22.6942 48.0886C22.27 46.4193 21.6406 44.8094 21.18 43.1493C20.9565 42.3511 19 36.9193 18.7309 36.3355C18.4983 36.3082 18.0513 36.5134 17.8187 36.4906C17.1483 36.7642 16.3775 36.8874 15.7071 36.9512C15.1279 37.006 14.3891 37.1017 13.7323 37.0105C13.5453 37.0561 13.3629 37.1063 13.1759 37.1428C12.8521 37.2112 12.5465 37.2978 12.2501 37.4073C13.0026 39.2681 13.3446 41.2292 13.6456 43.2086C13.9786 45.4251 14.5487 47.5914 14.877 49.8034C14.9683 50.4054 15.6569 52.8865 14.5213 53.078C14.421 53.1282 14.2933 53.1373 14.1336 53.0826C12.5648 52.59 12.469 49.9676 12.355 48.6769C12.2227 47.2129 12.1862 45.7352 12.0904 44.2712C12.0129 43.1128 11.7666 41.8905 11.794 40.7093C11.2148 41.1699 10.444 41.4481 9.75989 41.4755C9.0621 41.5074 8.51025 41.0057 8.36431 40.4037C8.12259 40.723 7.89455 41.0468 7.67107 41.3751C7.66651 41.3843 7.66195 41.3934 7.65739 41.4071H7.65283ZM16.0674 39.6831C18.1334 38.7664 18.626 41.7765 19.0866 43.0945C19.5244 44.3442 21.3123 50.2002 20.5643 51.3723C19.9532 52.3301 18.6123 52.8363 17.6272 52.1476C17.1711 51.8329 16.9339 51.2948 16.7743 50.7885C16.4551 49.7943 16.3456 48.7362 16.1677 47.71C15.9123 46.2688 15.3149 42.4652 15.2373 41.9635C15.0868 41.0377 15.1096 40.1073 16.072 39.6831H16.0674Z" fill="#36D1D7"/>
</g>
<path d="M18.1791 36.3811C18.3569 36.4586 18.5485 36.5772 18.7446 36.6091C18.886 37.0971 19.0182 37.5897 19.1596 38.0685C19.6567 39.7469 22.5984 49.4567 23.3008 52.6903C23.3373 52.8636 23.1092 53.046 22.977 52.8818C22.1195 51.8465 21.782 50.2776 21.3579 49.028C20.8015 47.3953 17.951 38.78 17.235 36.0755C17.4813 35.9797 17.9738 36.2853 18.1836 36.3765L18.1791 36.3811Z" fill="#FC5495"/>
<path d="M13.2078 37.0927C13.4267 37.0426 13.6639 37.0517 13.8828 37.0198C13.974 37.4758 14.0607 37.9319 14.1564 38.3743C14.5669 40.2625 16.4733 51.0213 16.5235 54.5467C16.5235 54.7702 16.2361 54.7839 16.1586 54.5969C15.5247 53.0371 14.3297 46.1093 14.0196 44.4036C13.6958 42.6341 13.4495 40.8462 13.0345 39.0949C12.8977 38.5111 12.7335 37.9046 12.5739 37.2889C12.7836 37.2113 12.9889 37.1384 13.2032 37.0882L13.2078 37.0927Z" fill="#FC5495"/>
<path d="M17.4675 35.8384C18.2291 38.5703 19.0546 41.4755 20.0215 44.139C20.3955 45.1743 21.8413 49.9813 22.0054 50.4328C22.1058 50.711 22.384 51.573 22.8173 51.3176C22.8674 51.3176 22.913 51.2948 22.9541 51.2629C23.0955 51.8193 23.214 52.3027 23.2961 52.695C23.3326 52.8683 23.1046 53.0507 22.9723 52.8865C22.1149 51.8512 21.7774 50.2823 21.3533 49.0327C20.7968 47.3999 17.9464 38.7847 17.2303 36.0802C17.2714 36.0619 17.4128 35.8339 17.4675 35.8384Z" fill="#EE2B77"/>
<g style="mix-blend-mode:multiply" opacity="0.5">
<path d="M16.0036 49.3518C15.9899 49.2789 15.9808 49.2104 15.9671 49.1375C15.8941 48.6951 15.8348 48.2573 15.7847 47.8103C15.8622 48.3302 15.9352 48.8456 16.0081 49.3518H16.0036Z" fill="#B73F72"/>
</g>
<path d="M15.0595 48.5583C15.2191 49.4476 15.3924 50.3324 15.5976 51.2081C15.6706 51.5091 15.7299 51.8831 15.8758 52.1795C15.9944 52.4851 16.1996 52.663 16.4003 52.6538C16.4733 53.3972 16.5143 54.0449 16.5235 54.542C16.5235 54.7655 16.2361 54.7791 16.1586 54.5922C15.5247 53.0324 14.3297 46.1046 14.0196 44.3989C13.6958 42.6293 13.4495 40.8415 13.0345 39.0902C12.8977 38.5064 12.7335 37.8998 12.5739 37.2841C12.6149 37.2704 12.6559 37.2522 12.7016 37.2385C13.413 38.8667 14.6855 46.4831 15.0549 48.5492L15.0595 48.5583Z" fill="#EE2B77"/>
<path d="M19.8847 38.1554C20.0353 38.3105 20.1584 38.5066 20.2724 38.6936C20.3454 38.8121 20.4047 38.9398 20.4868 39.0584C20.5461 39.1451 20.5734 39.25 20.6281 39.3412C20.6418 39.3594 20.6145 39.3914 20.5962 39.3777C20.4548 39.2728 20.3454 39.0493 20.2724 38.8942C20.1493 38.6434 19.9896 38.4336 19.8391 38.1964C19.8209 38.1691 19.8619 38.1417 19.8847 38.16V38.1554Z" fill="#00ACA6"/>
<path d="M11.0324 41.4072C11.1236 41.1837 11.3152 41.0378 11.4793 40.8736C11.6663 40.6866 11.8807 40.5269 12.0859 40.3582C12.1087 40.34 12.1452 40.3673 12.1224 40.3947C11.9582 40.5771 11.8032 40.7595 11.6207 40.9237C11.4383 41.0879 11.2969 41.2932 11.1099 41.4528C11.078 41.4801 11.0142 41.4528 11.0324 41.4072Z" fill="#00ACA6"/>
<path d="M11.5523 52.9505C11.6116 52.9641 12.9525 53.1511 13.9832 53.1511C14.6627 53.1511 15.3469 53.1329 16.0218 53.0645C18.0924 52.8501 20.1356 52.2481 22.1469 51.7327C22.9359 51.5321 24.0077 51.2721 24.7648 50.7659C24.9062 51.0258 26.9266 54.1727 27.3918 54.9207C27.6928 55.4087 27.223 55.5273 26.7852 55.7097C26.1969 55.956 25.6313 56.2205 25.0384 56.4349C25.1023 56.6036 25.1661 56.7815 25.157 56.9411C25.1525 57.0415 25.0886 57.0916 25.0111 57.1418C24.7602 57.2969 24.3406 57.3744 24.067 57.493C23.8025 57.607 23.4969 57.6572 23.2141 57.7164C22.8858 57.7849 22.5848 57.9445 22.2518 57.9946C21.7136 58.0767 21.6635 58.1816 21.4674 57.8396C21.1299 58.0357 20.7012 58.095 20.3317 58.2044C19.8757 58.3367 19.2828 58.323 18.8677 58.5693C18.8677 58.5693 18.8586 58.5693 18.8495 58.5739C18.8586 58.6514 18.8632 58.7335 18.8677 58.8156C18.8677 58.884 18.8085 58.9478 18.74 58.9478C17.9647 58.9114 17.1848 58.925 16.4049 58.8931C16.0811 58.8794 15.6524 58.9342 15.3423 58.8521C15.2328 58.8247 15.1827 58.7472 15.1644 58.6514C14.8269 58.6833 14.4575 58.6103 14.1383 58.6058C13.6092 58.5967 13.0802 58.5967 12.5511 58.6058C12.4781 58.6058 12.4097 58.5419 12.4097 58.469C12.4097 58.3869 12.4234 58.3002 12.428 58.2181C12.0038 58.1406 11.5797 58.0494 11.1601 57.9582C10.9138 57.9034 10.5946 57.8806 10.3939 57.7164C10.2616 57.607 11.5386 52.9641 11.5432 52.9459L11.5523 52.9505Z" fill="#FC5495"/>
<path d="M14.1382 36.1212C14.2978 36.0163 14.576 36.0346 14.7584 36.0164C15.1643 35.9707 15.5702 35.9479 15.9807 35.9571C16.8336 35.9753 17.6682 36.0984 18.48 36.3356C18.5074 36.3219 18.5484 36.331 18.553 36.363C18.5849 36.3858 18.5895 36.4268 18.5666 36.4587C18.6487 37.1474 18.708 39.1131 17.7457 39.1177C17.3444 39.1177 17.057 38.4381 16.8974 38.169C16.8153 38.0322 16.7332 37.8954 16.6557 37.754C16.5098 38.5111 16.2224 39.4734 15.5018 39.2408C15.0777 39.0994 14.804 38.5202 14.6216 38.1553C14.3753 37.6628 14.2203 37.0152 14.2339 36.4405H14.2248C14.047 36.4405 13.9922 36.2125 14.1336 36.1212H14.1382Z" fill="#00ACA6"/>
<g style="mix-blend-mode:multiply" opacity="0.5">
<path d="M16.1996 38.5246C16.4277 38.0731 16.5189 37.5076 16.4915 36.9557C16.5782 37.1427 16.6785 37.3251 16.7743 37.5076C16.9978 37.9271 17.2121 38.5474 17.7412 38.6341C18.6396 38.7846 18.6533 37.4346 18.4982 36.3354C18.5211 36.3354 18.553 36.34 18.553 36.3674C18.5849 36.3902 18.5895 36.4312 18.5667 36.4631C18.6488 37.1518 18.708 39.1175 17.7457 39.1221C17.3444 39.1221 17.0571 38.4425 16.8974 38.1734C16.8153 38.0366 16.7332 37.8998 16.6557 37.7584C16.5098 38.5155 16.2224 39.4778 15.5018 39.2452C15.2236 39.154 15.0093 38.8667 14.8451 38.5793C15.2008 39.0445 15.8621 39.195 16.1996 38.5246Z" fill="#00ACA6"/>
</g>
<path d="M23.2187 39.7379C23.2187 39.7379 23.1685 39.7653 23.1366 39.7699C23.0545 39.7881 22.8037 39.7562 22.5346 39.7197C22.4434 38.8075 22.3704 37.8908 22.343 36.9741C22.4434 36.9832 22.5437 36.9969 22.6486 37.0015C22.8082 37.0106 22.9678 36.9878 23.1229 37.0152C23.132 37.6628 23.0545 38.3195 23.1229 38.9672C23.1503 39.2271 23.1822 39.4825 23.2278 39.7379H23.2187Z" fill="#00ACA6"/>
<path d="M8.09974 40.7504C8.38707 40.9921 8.72 41.1974 8.98908 41.4163C9.38131 41.7401 9.81914 41.9955 10.2433 42.2737C10.2387 42.2783 10.2342 42.2828 10.225 42.2919C10.0745 42.4379 9.89667 42.675 9.72336 42.7845C9.66408 42.821 9.60022 42.8255 9.53637 42.8164C9.29922 42.6386 9.07574 42.447 8.83858 42.2646C8.5695 42.0548 8.27305 41.886 7.99028 41.7036C7.88082 41.6078 7.76681 41.5075 7.65735 41.4026C7.65735 41.3935 7.66191 41.3798 7.67103 41.3707C7.81241 41.1609 7.95836 40.9556 8.1043 40.7458L8.09974 40.7504Z" fill="#00ACA6"/>
<path d="M12.469 58.2454C12.469 58.2454 12.4462 58.2454 12.4325 58.2454C12.4325 58.2363 12.4325 58.2272 12.4325 58.2226C12.2547 58.1907 12.0768 58.1542 11.8989 58.1177C12.2227 56.4439 12.6378 54.7793 12.8476 53.0918C12.957 53.1009 13.0756 53.11 13.1896 53.1146C12.9798 54.1453 12.9205 55.2034 12.7655 56.2433C12.6651 56.9046 12.5466 57.5704 12.4645 58.2409L12.469 58.2454Z" fill="#EE2B77"/>
<path d="M18.8312 58.9114C18.6579 56.8545 18.1289 54.8067 17.9829 52.7498C18.0969 52.727 18.2109 52.7042 18.3204 52.6814C18.3386 52.7589 19.1641 57.6389 19.3146 58.396C19.155 58.4371 19 58.4872 18.8677 58.5693C18.8677 58.5693 18.8586 58.5693 18.8495 58.5739C18.8586 58.6514 18.8631 58.7335 18.8677 58.8156C18.8677 58.8521 18.854 58.884 18.8266 58.9114H18.8312Z" fill="#EE2B77"/>
<path d="M14.9683 53.1328C15.137 53.1283 15.3058 53.1192 15.4745 53.1055C15.3788 54.2457 15.4061 55.3904 15.3423 56.5306C15.3103 57.1144 15.0549 57.9991 15.1644 58.6559C14.9181 58.6787 14.649 58.6468 14.3982 58.624C14.6217 56.7951 14.8087 54.9663 14.9683 53.1328Z" fill="#EE2B77"/>
<path d="M25.043 56.4531C24.9427 56.1886 24.7967 55.9332 24.6736 55.7097C24.2814 55.0165 23.9758 54.2776 23.5973 53.5753C23.2552 52.9368 22.8539 52.2937 22.5665 51.6233C22.6577 51.6005 22.7444 51.5777 22.8356 51.5503C23.5197 52.7361 25.5812 56.0061 25.6861 56.1794C25.4717 56.2707 25.2528 56.3573 25.0339 56.4348C25.0339 56.4394 25.0339 56.4485 25.043 56.4531Z" fill="#EE2B77"/>
<path d="M19.3786 52.4396C19.675 53.3791 20.1585 54.2502 20.5005 55.1761C20.7787 55.9195 21.0113 56.672 21.2804 57.4154C21.367 57.648 21.4719 57.8623 21.5996 58.022C21.554 57.9855 21.513 57.9262 21.4628 57.835C21.326 57.9125 21.1755 57.9718 21.0204 58.0174C20.7742 57.2649 19.3375 53.6209 19.0228 52.5217C19.1414 52.4943 19.26 52.4624 19.3786 52.4351V52.4396Z" fill="#EE2B77"/>
<path d="M22.6212 51.5912C22.8082 51.9241 22.9678 52.2707 23.1503 52.5991C23.4057 53.0688 23.6702 53.534 23.9073 54.0175C24.1262 54.4644 24.3497 54.9023 24.5458 55.3583C24.6462 55.5909 24.97 56.3389 25.0612 56.4164C25.084 56.4347 24.742 55.9558 24.6644 55.8144C24.4136 55.3446 24.1673 54.8703 23.9119 54.4051C23.4193 53.5067 22.8401 52.59 22.4205 51.6413C22.4889 51.6231 22.5528 51.6048 22.6166 51.582L22.6212 51.5912Z" fill="#D50268"/>
<path d="M19.5518 52.3801C19.8072 53.0186 20.0443 53.6663 20.2769 54.3139C20.6692 55.4039 21.0614 56.8497 21.5083 57.9169C21.522 57.9488 20.6372 55.6547 20.2268 54.6833C19.9212 53.949 19.5974 53.2011 19.3101 52.4485C19.3922 52.4303 19.4697 52.4121 19.5472 52.3847L19.5518 52.3801Z" fill="#D50268"/>
<path d="M17.9464 52.7451C18.0056 52.736 18.0695 52.7315 18.1242 52.7178C18.22 53.4475 18.2838 54.1863 18.3887 54.9069C18.48 55.5226 18.5438 56.1383 18.6213 56.754C18.7034 57.4153 18.7171 58.0903 18.8129 58.7471C18.8175 58.779 17.9692 53.4931 17.8643 52.7543C17.8871 52.7543 17.9144 52.7497 17.9418 52.7451H17.9464Z" fill="#D50268"/>
<path d="M15.1826 55.7004C15.21 54.8475 15.2328 53.9855 15.2692 53.1235C15.3012 53.1235 15.3285 53.1235 15.3605 53.1235C15.4198 53.119 15.4882 53.1144 15.552 53.1099C15.5201 53.8533 15.438 54.6012 15.3969 55.3401C15.365 55.8828 15.3331 56.421 15.3057 56.9637C15.2829 57.4654 15.2191 58.8017 15.2054 58.7606C15.064 58.4003 15.1461 57.812 15.1415 57.438C15.137 56.8634 15.1598 56.2841 15.178 55.7095L15.1826 55.7004Z" fill="#D50268"/>
<path d="M13.0025 53.1052C13.0573 53.1143 13.112 53.1235 13.1713 53.1235C13.2215 53.1235 13.2716 53.1235 13.3218 53.1235C13.2534 53.6936 12.4279 58.5097 12.4279 58.4595C12.4233 57.3604 12.9433 53.6753 13.0025 53.1052Z" fill="#D50268"/>
<path d="M26.4522 25.0067C26.475 24.9794 26.4978 24.9566 26.5161 24.9383C26.6027 24.8471 26.7076 24.7605 26.8308 24.7377C26.9265 24.7194 27.0223 24.7377 27.0633 24.8426C27.1044 24.952 27.0269 25.0706 26.9539 25.1436C26.8764 25.2211 26.7897 25.3032 26.6802 25.3306C26.5845 25.3534 26.4705 25.3442 26.402 25.2621C26.3336 25.1709 26.3838 25.0843 26.4476 25.0113L26.4522 25.0067Z" fill="#BAB6B1"/>
<path d="M0.807206 32.0438C0.241674 30.1192 -0.141428 28.0668 0.0501231 26.051C0.104852 25.4672 0.205188 24.8926 0.369375 24.3316C0.775281 22.9406 1.65094 21.6772 3.04197 21.1436C3.58926 20.9338 4.20496 20.8153 4.78873 20.9019C5.06238 20.943 5.3269 21.0251 5.5823 21.1299C5.22201 21.7365 5.06238 22.5119 4.921 23.1367C4.53789 24.8013 4.36459 26.5253 4.50597 28.231C4.66103 30.0827 5.15816 31.8568 6.17976 33.2935C6.34395 33.9958 6.57655 34.6845 6.83195 35.3412C7.26978 36.4495 7.80339 37.5441 7.94477 38.7481C8.00862 39.3182 8.09071 39.9932 7.97669 40.5633C7.92653 40.7959 7.86268 41.1425 7.71217 41.3979C7.1512 41.521 6.56286 41.5028 5.99733 41.4116C5.97909 41.3477 5.99277 41.2611 6.03382 41.1379C6.22993 40.5313 6.29834 39.9065 6.29378 39.2726C6.29378 39.2908 6.29378 39.3091 6.28466 39.3273C6.1752 39.8792 6.02926 40.4447 5.83771 40.9737C5.78298 41.1288 5.69632 41.3979 5.56406 41.5803C5.26761 41.4891 4.9666 41.4116 4.70208 41.2565C4.72488 41.0969 4.78873 40.9327 4.80698 40.8324C4.93012 40.1756 4.89819 39.5006 4.86627 38.8393C4.84802 38.4289 4.78874 38.0275 4.70208 37.6353C4.72945 37.9773 4.75681 38.3194 4.75225 38.666C4.75225 39.4185 4.54702 40.1072 4.25057 40.7822C4.19584 40.9053 4.14111 40.9965 4.08182 41.065C4.07726 41.065 4.0727 41.065 4.06814 41.065C3.16055 40.9965 2.24384 40.6134 1.3545 40.3033C1.6555 40.0388 1.84706 39.6511 1.95195 39.1814C1.97476 39.1266 2.00212 39.0674 2.02492 39.0035C2.27577 38.3696 2.16631 37.6626 1.993 36.9968C1.77408 35.0402 1.05349 32.8739 0.807206 32.0347V32.0438Z" fill="#E08804"/>
<g style="mix-blend-mode:multiply" opacity="0.3">
<path d="M7.27891 40.3811C7.80796 38.315 6.7225 36.9696 5.51391 35.4509C3.80363 33.3028 2.6224 30.4979 2.76378 27.7113C2.84131 26.1379 3.21529 24.6282 3.70785 23.1323C3.95413 22.3752 4.17761 21.5817 4.55159 20.8748C4.63368 20.8748 4.71122 20.8839 4.79331 20.8976C5.06695 20.9386 5.33148 21.0207 5.58688 21.1256C5.22658 21.7322 5.06695 22.5075 4.92557 23.1323C4.54247 24.797 4.36916 26.521 4.51054 28.2267C4.66561 30.0783 5.16273 31.8525 6.18434 33.2891C6.34852 33.9915 6.58112 34.6801 6.83652 35.3369C7.27435 36.4451 7.80796 37.5397 7.94934 38.7437C8.01319 39.3138 8.09529 39.9888 7.98127 40.5589C7.9311 40.7915 7.86725 41.1381 7.71675 41.3935C7.39749 41.462 7.06912 41.4848 6.73619 41.4756C6.98247 41.1655 7.17402 40.8006 7.28348 40.3765L7.27891 40.3811Z" fill="#E08804"/>
</g>
<path d="M10.5718 28.3223C12.5557 27.7203 14.4666 26.872 16.3001 25.9052C18.097 24.9565 19.8802 23.8574 21.3306 22.4116C22.0831 21.6637 22.9815 20.7926 23.6064 19.8257C24.5687 21.1392 25.0521 22.9772 25.2665 24.5324C25.3896 25.4172 25.5766 26.2472 25.7089 27.0818C25.7089 27.0909 25.7089 27.1046 25.7089 27.1138C25.7682 28.6188 25.6222 30.0646 25.1798 31.5103C24.8013 32.7508 23.9119 33.8408 22.904 34.639C20.838 36.2717 18.0924 37.3845 15.4426 37.4666C12.7518 37.5487 10.1203 36.3675 8.50575 34.1966C8.39173 34.0461 8.28683 33.891 8.17738 33.7405C7.57992 32.3039 7.32908 30.8764 7.09192 29.3531C8.27315 29.1114 9.42702 28.6735 10.5672 28.3315L10.5718 28.3223Z" fill="#F4D9BF"/>
<path d="M22.3612 23.9715C22.8401 22.9499 23.2004 21.9237 23.2141 20.7881C23.1822 20.6376 23.1457 20.4916 23.1092 20.3411C23.0864 20.2545 23.2095 20.2226 23.2415 20.3047C23.4695 20.9204 23.5561 21.6638 23.5926 22.3159C23.6382 23.0867 23.6382 23.8803 23.3646 24.6146C23.3509 24.6465 23.3053 24.6374 23.3099 24.6009C23.5561 23.4424 23.5105 22.3023 23.2916 21.1666C23.2369 22.1563 22.8903 23.1597 22.3977 23.9897C22.384 24.0125 22.3521 23.9897 22.3612 23.9715Z" fill="#E08804"/>
<path d="M4.91644 21.7138C5.2585 21.0023 5.64616 20.3365 6.07031 19.7345C6.69513 18.8542 7.49782 18.0059 8.3598 17.3401C10.7314 15.5066 13.6913 14.5306 16.6923 14.6583C19 14.7587 21.285 15.5705 22.9451 17.2169C23.9302 18.1975 24.815 19.3833 25.2437 20.715C25.4808 21.4539 25.6085 22.2429 25.6541 23.0182C25.6724 23.3557 25.8183 25.1891 25.5264 25.3807C25.4763 25.4126 25.3896 25.3943 25.3896 25.3122C25.3896 25.3031 25.3896 25.294 25.3896 25.2894C25.3896 25.2894 25.3896 25.2894 25.3896 25.2849C25.3303 24.9291 25.1798 24.6144 25.0612 24.277C24.9107 23.8482 24.7785 23.4104 24.5915 22.9908C24.2722 22.2748 23.9667 21.5724 23.5562 20.9066C23.4878 20.7925 23.4103 20.6831 23.3282 20.5736C23.164 20.7606 22.9907 20.9431 22.8265 21.1255C22.1834 21.8415 21.6316 22.6214 20.9292 23.2918C20.2223 23.9714 19.4059 24.4867 18.6488 25.1024C17.9191 25.6953 17.1757 26.229 16.3776 26.7215C14.8269 27.6701 13.1212 28.3953 11.3881 28.9472C10.3483 29.2801 9.21266 29.5537 8.09072 29.5674C7.7441 30.5753 7.89461 31.8797 8.19106 32.7964C8.27315 33.0518 8.38717 33.289 8.52399 33.517C8.9755 34.5569 9.73715 35.5192 10.6219 36.1166C10.6037 36.1531 10.5718 36.1805 10.5307 36.1942C10.2525 36.2854 10.0245 36.1531 9.76451 36.0665C8.22298 35.5557 6.54919 34.5842 5.36796 33.2981C4.48317 31.9436 3.95413 30.3382 3.80818 28.7282C3.58927 26.3293 3.98149 23.9121 4.92556 21.7184L4.91644 21.7138Z" fill="#F39F00"/>
<path d="M20.1493 26.7171C20.1493 26.7171 19.6477 25.7456 19.0548 25.9098C18.4619 26.0786 18.2566 26.6988 18.1654 26.977C18.0742 27.2552 19.0821 25.4902 20.1493 26.7171Z" fill="#CC6809"/>
<path d="M23.3464 26.6029C23.3464 26.6029 23.5014 25.6634 24.0077 25.668C24.5185 25.668 24.8377 26.1469 24.9745 26.3567C25.1159 26.5665 23.8754 25.3168 23.3418 26.6029H23.3464Z" fill="#CC6809"/>
<path d="M22.0101 31.4967C22.0101 31.4967 22.0466 31.4921 22.1105 31.4875C22.1743 31.4875 22.2655 31.4875 22.3568 31.5103C22.4024 31.524 22.448 31.5468 22.4845 31.5742C22.521 31.6061 22.5483 31.6472 22.5711 31.6928C22.5802 31.7156 22.5939 31.7566 22.5939 31.7612C22.5939 31.7931 22.6076 31.8387 22.5985 31.8524C22.5985 31.8843 22.5757 31.9482 22.5483 31.9983C22.5209 32.0531 22.4799 32.0987 22.4343 32.1489C22.3887 32.1945 22.3431 32.2401 22.2929 32.2811C22.2427 32.3176 22.1926 32.3586 22.1424 32.3906C22.0922 32.4225 22.0421 32.4544 21.9965 32.4818C21.9053 32.532 21.8232 32.573 21.7639 32.5912C21.7046 32.614 21.6681 32.6186 21.6681 32.6186C21.6681 32.6186 21.7046 32.6368 21.773 32.6368C21.8414 32.6414 21.9372 32.6368 22.0512 32.6049C22.1652 32.5776 22.2929 32.5274 22.4161 32.4499C22.4753 32.4088 22.5438 32.3678 22.5985 32.313C22.6578 32.2583 22.7125 32.1945 22.7535 32.1215C22.7946 32.0394 22.8311 31.9664 22.8265 31.8524C22.8265 31.7931 22.8174 31.7703 22.8083 31.7293C22.79 31.67 22.7718 31.6472 22.7535 31.6061C22.7079 31.5332 22.6487 31.4739 22.5802 31.4374C22.5118 31.4009 22.4389 31.3872 22.375 31.3872C22.2473 31.3872 22.1607 31.4237 22.0968 31.4511C22.0375 31.483 22.0056 31.5058 22.0056 31.5058L22.0101 31.4967Z" fill="#C39368"/>
<path d="M23.9348 28.6096C23.912 29.1569 24.0853 29.6038 24.327 29.613C24.5641 29.6221 24.7785 29.1888 24.8013 28.6461C24.8241 28.0988 24.6462 27.6518 24.4091 27.6427C24.1719 27.6336 23.9576 28.0669 23.9348 28.6096Z" fill="#673121"/>
<path d="M24.4409 28.2173C24.4501 28.3815 24.5139 28.5138 24.5823 28.5092C24.6553 28.5092 24.71 28.3724 24.7009 28.2036C24.6918 28.0394 24.6279 27.9072 24.5595 27.9117C24.4865 27.9117 24.4318 28.0486 24.4409 28.2173Z" fill="white"/>
<path d="M18.5759 28.8058C18.5485 29.4625 18.7583 30.0007 19.0456 30.0143C19.333 30.0235 19.5884 29.5035 19.6157 28.8468C19.6431 28.1901 19.4333 27.6519 19.146 27.6382C18.8587 27.6245 18.6033 28.149 18.5759 28.8012V28.8058Z" fill="#673121"/>
<path d="M19.1915 28.3359C19.2007 28.5366 19.2782 28.6916 19.3648 28.6871C19.4515 28.6871 19.5154 28.5183 19.5062 28.3222C19.4971 28.1215 19.4196 27.9665 19.3329 27.971C19.2463 27.971 19.1824 28.1398 19.1915 28.3359Z" fill="white"/>
<path d="M14.2979 30.5707C14.2979 30.9766 15.0914 31.305 16.0674 31.3004C17.0434 31.3004 17.8324 30.9675 17.8324 30.5616C17.8324 30.1556 17.0389 29.8273 16.0674 29.8318C15.0914 29.8318 14.3024 30.1648 14.3024 30.5707H14.2979Z" fill="#F9CBC0"/>
<path d="M15.6798 35.5739C15.7984 35.7107 16.0264 35.8202 16.1997 35.8612C16.8565 36.0072 17.5223 35.4644 17.764 34.8898C17.764 34.8852 17.764 34.8761 17.764 34.8715C17.7777 34.8533 17.7868 34.8305 17.8005 34.8077C17.8188 34.7712 17.8279 34.7165 17.8005 34.6754C17.6227 34.4383 17.3171 34.3197 17.1073 34.1053C16.9157 33.9047 16.6786 33.6903 16.5554 33.4395C16.5235 33.3756 16.4414 33.3711 16.3867 33.3939C16.2362 33.4623 16.0766 33.6356 15.9671 33.7587C15.8303 33.9184 15.6935 34.1236 15.6022 34.3516C15.4289 34.7621 15.3879 35.2318 15.6843 35.5739H15.6798Z" fill="#F15860"/>
<path d="M5.97454 30.995C6.1889 30.5708 6.79091 30.0509 7.30172 30.2607C7.53888 30.3565 7.73955 30.5663 7.89917 30.8034C7.85357 31.1592 8.02688 32.4225 8.25947 32.988C7.96302 33.4897 7.16489 33.3346 6.65865 33.0656C5.83772 32.6232 5.61424 31.6928 5.96998 30.995H5.97454Z" fill="#EFCAA6"/>
<path d="M7.0737 31.0999C7.45225 31.2139 7.68484 31.5605 7.81254 31.9117C7.83079 31.9573 7.76694 31.9756 7.74413 31.9437C7.60731 31.7567 7.47961 31.5697 7.2835 31.4374C7.06914 31.2915 6.70885 31.2048 6.65412 31.5286C6.63587 31.6426 6.47625 31.6244 6.44432 31.5286C6.31206 31.1455 6.7955 31.0133 7.07827 31.0954L7.0737 31.0999Z" fill="#C39368"/>
<path d="M16.5874 33.3254C17.6455 34.8441 19.7115 35.8064 21.3625 34.6024C21.3807 34.5887 21.3944 34.6161 21.3853 34.6297C20.0353 36.1804 17.121 35.1223 16.446 33.3846C16.4141 33.298 16.5418 33.2569 16.5874 33.3254Z" fill="#C39368"/>
<path d="M16.1176 35.3596C16.2909 35.1908 16.4323 34.9811 16.5782 34.7849C16.6923 34.6253 16.7835 34.4338 16.9203 34.2878C16.9659 34.2422 17.0434 34.2741 17.0434 34.338C17.0526 34.5478 16.8656 34.753 16.7379 34.9035C16.5646 35.1042 16.3913 35.2775 16.1632 35.4098C16.1313 35.428 16.0948 35.387 16.1222 35.3596H16.1176Z" fill="#D15762"/>
<path d="M49.5114 24.6919H40.7183V25.8959H49.5114V24.6919Z" fill="white"/>
<path d="M62.3636 24.7329H53.5704V25.9369H62.3636V24.7329Z" fill="white"/>
</g>
<defs>
<clipPath id="clip0_12_3352">
<rect width="80" height="76.356" fill="white"/>
</clipPath>
</defs>
</svg>
