<svg width="104" height="72" viewBox="0 0 104 72" fill="none" xmlns="http://www.w3.org/2000/svg">
<g clip-path="url(#clip0_13_6421)">
<path d="M52.4687 63.2254C68.8 63.2254 82.0391 49.9863 82.0391 33.655C82.0391 17.3238 68.8 4.08472 52.4687 4.08472C36.1375 4.08472 22.8984 17.3238 22.8984 33.655C22.8984 49.9863 36.1375 63.2254 52.4687 63.2254Z" fill="white"/>
<path d="M52.5685 71.22C36.8246 71.22 22.7944 61.2288 17.6532 46.3542L18.8553 45.9382C23.8177 60.297 37.3654 69.943 52.5644 69.943C72.2266 69.943 88.2201 53.9454 88.2201 34.2873V33.6509H99.1223V34.9237H89.4888C89.1477 54.9936 72.7133 71.2159 52.5644 71.2159L52.5685 71.22Z" fill="#001A4E"/>
<path d="M98.1948 37.4652L103.694 34.2914L98.1948 31.1177V37.4652Z" fill="#001A4E"/>
<path d="M18.0442 1.27283C20.3694 1.27283 22.5199 1.57231 24.4374 2.15881C26.3591 2.74531 28.0313 3.59386 29.4039 4.67951C30.7808 5.76931 31.8622 7.10453 32.6234 8.65189C33.3805 10.1992 33.7673 11.9463 33.7673 13.843C33.7673 15.2448 33.5011 16.501 32.9812 17.5866C32.4612 18.6639 31.804 19.6498 31.0262 20.5191C30.2483 21.3843 29.4039 22.1663 28.5055 22.8443C27.607 23.5223 26.7668 24.1504 26.0014 24.7078C25.2361 25.2693 24.5872 25.8101 24.0755 26.3217C23.5806 26.8167 23.331 27.32 23.331 27.8233V30.527H12.6867V26.0638C12.6867 25.3109 12.8863 24.5913 13.2815 23.9216C13.6725 23.2644 14.1716 22.6155 14.7706 21.9958C15.3696 21.3801 16.0101 20.7645 16.684 20.1697C17.3537 19.5749 17.9943 18.951 18.5808 18.3145C19.1673 17.6781 19.6581 17.0084 20.0408 16.3221C20.4234 15.6358 20.6065 14.9037 20.6065 14.0801C20.6065 13.5311 20.5191 13.0153 20.3444 12.5078C20.1697 12.0003 19.916 11.5677 19.5749 11.1892C19.2338 10.8107 18.8303 10.5112 18.3437 10.2741C17.857 10.0412 17.3163 9.92887 16.6923 9.92887C15.8812 9.92887 15.2157 10.0745 14.7207 10.3615C14.2215 10.6485 13.8305 11.027 13.5519 11.4845C13.2732 11.9463 13.0818 12.487 12.9861 13.086C12.8863 13.6933 12.8364 14.3172 12.8364 14.9453V15.7647C12.8364 16.0268 12.8572 16.2972 12.8946 16.5675L12.9113 16.6923H1.46417L1.45585 16.5925C1.41425 16.1973 1.37681 15.8147 1.33522 15.4444C1.29362 15.0784 1.27699 14.6874 1.27699 14.2881C1.27699 12.2915 1.70126 10.4696 2.54149 8.87234C3.38172 7.27507 4.55888 5.8941 6.04384 4.76686C7.5288 3.63962 9.31326 2.76611 11.3556 2.17129C13.3896 1.57647 15.6441 1.27283 18.0483 1.27283M18.0483 0C15.5235 0 13.1525 0.320286 10.9979 0.94838C8.80995 1.58895 6.88407 2.53317 5.27432 3.75192C3.63962 4.99147 2.33767 6.51387 1.41425 8.27753C0.47419 10.062 0 12.0835 0 14.2881C0 14.7373 0.0207978 15.1741 0.066553 15.5817C0.103989 15.9478 0.145585 16.3263 0.183021 16.7214L0.307808 17.9651H14.3921L14.1633 16.3845C14.1342 16.1724 14.1175 15.9644 14.1175 15.7606V14.9411C14.1175 14.3796 14.1633 13.8222 14.2507 13.2815C14.3214 12.8447 14.4545 12.4579 14.65 12.1376C14.8164 11.8631 15.0493 11.6385 15.3654 11.4596C15.6607 11.289 16.1225 11.1975 16.7006 11.1975C17.1291 11.1975 17.491 11.2683 17.8029 11.418C18.1398 11.5802 18.4102 11.7799 18.639 12.0336C18.8636 12.2873 19.0342 12.5744 19.1506 12.9196C19.2796 13.294 19.342 13.6725 19.342 14.076C19.342 14.6749 19.2089 15.2074 18.9343 15.6982C18.6016 16.2972 18.169 16.8837 17.649 17.4452C17.0875 18.0525 16.4802 18.6473 15.8438 19.2089C15.1491 19.8245 14.4794 20.4609 13.8597 21.1015C13.19 21.7919 12.6284 22.5199 12.1875 23.2686C11.6759 24.1379 11.4138 25.0738 11.4138 26.0596V31.7957H24.608V27.8191C24.608 27.6694 24.7411 27.4531 24.9782 27.216C25.444 26.7501 26.0389 26.251 26.7543 25.731C27.5363 25.1612 28.3765 24.5372 29.275 23.8551C30.2358 23.1313 31.1426 22.2911 31.9745 21.3635C32.8314 20.4068 33.5552 19.3212 34.1292 18.1357C34.7323 16.8795 35.0401 15.432 35.0401 13.8389C35.0401 11.7466 34.6117 9.8124 33.7673 8.09035C32.9229 6.37245 31.7208 4.88748 30.1943 3.68121C28.6926 2.49574 26.8832 1.57647 24.8076 0.940061C22.7694 0.316127 20.49 0 18.04 0L18.0483 0Z" fill="#001A4E"/>
<path d="M23.4849 35.3646V45.4266H12.72V35.3646H23.4849ZM24.7577 34.0918H11.4471V46.6994H24.7577V34.0918Z" fill="#001A4E"/>
<path d="M41.5458 28.6844H38.8296C38.0268 28.6844 37.6233 28.2643 37.6233 27.4241V22.495C37.6233 21.6423 38.0226 21.2139 38.8212 21.2139H39.7779C40.5766 21.2139 40.9759 21.6423 40.9759 22.495V27.7777H41.5499V28.6844H41.5458ZM39.9734 27.7777V22.5574C39.9734 22.2662 39.8237 22.1207 39.5242 22.1207H39.0583C38.7672 22.1207 38.6216 22.2662 38.6216 22.5574V27.3409C38.6216 27.6321 38.7713 27.7777 39.0708 27.7777H39.9776H39.9734Z" fill="#001A4E"/>
<path d="M45.4641 21.218V27.2702C45.4641 28.2144 45.0606 28.6844 44.2578 28.6844H43.4134C42.6148 28.6844 42.2155 28.2102 42.2155 27.2577V21.2139H43.2137V27.2868C43.2137 27.6113 43.3593 27.7777 43.6505 27.7777H44.0581C44.3285 27.7777 44.4616 27.6154 44.4616 27.2868V21.2139H45.4599L45.4641 21.218Z" fill="#001A4E"/>
<path d="M46.6079 28.6844V21.218H49.0828V22.1248H47.6062V24.3918H48.9165V25.2985H47.6062V27.786H49.0828V28.6927H46.6079V28.6844Z" fill="#001A4E"/>
<path d="M51.9239 23.2271V22.5699C51.9239 22.2704 51.7783 22.1206 51.4871 22.1206H51.3291C51.0462 22.1206 50.9006 22.2704 50.9006 22.5699V23.8094C50.9006 23.9467 50.9298 24.0424 50.9838 24.0881C51.0379 24.138 51.1294 24.2004 51.2542 24.2753L52.2026 24.7869C52.4106 24.9034 52.5561 24.9949 52.6435 25.0614C52.7308 25.128 52.7974 25.207 52.8473 25.3027C52.8972 25.3984 52.918 25.5731 52.918 25.8393V27.4324C52.918 28.2726 52.5145 28.6927 51.7118 28.6927H51.1003C50.3017 28.6927 49.9023 28.2352 49.9023 27.3201V26.9457H50.9006V27.3534C50.9006 27.6445 51.0504 27.7901 51.3499 27.7901H51.5287C51.7908 27.7901 51.9239 27.6445 51.9239 27.3534V26.0847C51.9239 25.9474 51.8948 25.8518 51.8407 25.8018C51.7866 25.7519 51.6951 25.6895 51.5703 25.6147L50.6219 25.0822C50.414 24.9699 50.2642 24.8784 50.1686 24.8036C50.077 24.7287 50.0063 24.6288 49.9647 24.5082C49.9231 24.3876 49.9023 24.2295 49.9023 24.034V22.5033C49.9023 21.6506 50.3017 21.2222 51.1003 21.2222H51.7242C52.5229 21.2222 52.9222 21.6506 52.9222 22.5033V23.2312H51.9239V23.2271Z" fill="#001A4E"/>
<path d="M55.5509 22.1248V28.6886H54.5526V22.1248H53.5959V21.218H56.5076V22.1248H55.5509Z" fill="#001A4E"/>
<path d="M57.2897 28.6844V21.218H58.288V28.6844H57.2897Z" fill="#001A4E"/>
<path d="M60.5841 28.6844C59.7813 28.6844 59.3778 28.2602 59.3778 27.4158V22.495C59.3778 21.6423 59.7771 21.2139 60.5758 21.2139H61.5325C62.3311 21.2139 62.7304 21.6423 62.7304 22.495V27.4158C62.7304 28.2602 62.3269 28.6844 61.5241 28.6844H60.5882H60.5841ZM60.8253 27.7777H61.337C61.599 27.7777 61.7321 27.6321 61.7321 27.3409V22.5574C61.7321 22.2662 61.5824 22.1207 61.2829 22.1207H60.817C60.5258 22.1207 60.3803 22.2662 60.3803 22.5574V27.3409C60.3803 27.6321 60.53 27.7777 60.8295 27.7777H60.8253Z" fill="#001A4E"/>
<path d="M65.8917 24.8285V21.218H66.8899V28.6844H65.8917V27.1953L64.8185 23.7928V28.6803H63.8202V21.2139H64.8185L65.8917 24.8244V24.8285Z" fill="#001A4E"/>
<path d="M68.8242 26.6671V25.4067C68.8242 25.2528 68.8367 25.1363 68.8616 25.0531C68.8866 24.97 68.9157 24.9034 68.9573 24.8535C68.9947 24.8036 69.0613 24.7412 69.1611 24.6663L69.8807 24.138C69.9639 24.0673 70.018 24.0049 70.0388 23.9467C70.0596 23.8885 70.0721 23.7886 70.0721 23.6514V22.5782C70.0721 22.2746 69.9265 22.1207 69.6353 22.1207H69.2526C68.9739 22.1207 68.8367 22.2746 68.8367 22.5782V23.1189H67.8384V22.495C67.8384 21.6423 68.2377 21.2139 69.0363 21.2139H69.889C70.6794 21.2139 71.0745 21.6423 71.0745 22.495V24.0133C71.0745 24.1672 71.062 24.2836 71.0371 24.3668C71.0121 24.45 70.9747 24.5207 70.9206 24.5748C70.8707 24.6289 70.8 24.6913 70.7168 24.7537L70.0221 25.2944C69.939 25.3568 69.8849 25.4192 69.8641 25.4774C69.8433 25.5357 69.8308 25.6355 69.8308 25.7727V26.6671H68.8325H68.8242ZM69.8766 27.4158V28.6844H68.8159V27.4158H69.8766Z" fill="#001A4E"/>
<circle cx="42" cy="34" r="2" fill="#001A4E"/>
<circle cx="42" cy="39" r="2" fill="#001A4E"/>
<circle cx="42" cy="44" r="2" fill="#001A4E"/>
<circle cx="42" cy="49" r="2" fill="#001A4E"/>
<line x1="46" y1="33.5" x2="69" y2="33.5" stroke="black"/>
<line x1="46" y1="38.5" x2="69" y2="38.5" stroke="black"/>
<line x1="46" y1="43.5" x2="69" y2="43.5" stroke="black"/>
<line x1="46" y1="48.5" x2="69" y2="48.5" stroke="black"/>
</g>
<defs>
<clipPath id="clip0_13_6421">
<rect width="103.694" height="71.22" fill="white"/>
</clipPath>
</defs>
</svg>
