<svg width="390" height="438" viewBox="0 0 390 438" fill="none" xmlns="http://www.w3.org/2000/svg">
<path d="M128.452 92.0087L117.097 80.373" stroke="black" stroke-opacity="0.48" stroke-linecap="round" stroke-linejoin="round"/>
<path d="M117.447 92.3994L128.102 79.9825" stroke="black" stroke-opacity="0.48" stroke-linecap="round" stroke-linejoin="round"/>
<path d="M141.497 270.564L130.143 258.92" stroke="black" stroke-opacity="0.48" stroke-linecap="round" stroke-linejoin="round"/>
<path d="M130.492 270.946L141.147 258.537" stroke="black" stroke-opacity="0.48" stroke-linecap="round" stroke-linejoin="round"/>
<path d="M3.31811 370.322L-8.04419 358.678" stroke="black" stroke-opacity="0.48" stroke-linecap="round" stroke-linejoin="round"/>
<path d="M-7.68677 370.704L2.96074 358.295" stroke="black" stroke-opacity="0.48" stroke-linecap="round" stroke-linejoin="round"/>
<path d="M268.255 155.012L256.9 143.377" stroke="black" stroke-opacity="0.48" stroke-linecap="round" stroke-linejoin="round"/>
<path d="M257.25 155.403L267.905 142.994" stroke="black" stroke-opacity="0.48" stroke-linecap="round" stroke-linejoin="round"/>
<path d="M323.622 293.184L312.267 281.548" stroke="black" stroke-opacity="0.48" stroke-linecap="round" stroke-linejoin="round"/>
<path d="M312.617 293.575L323.272 281.166" stroke="black" stroke-opacity="0.48" stroke-linecap="round" stroke-linejoin="round"/>
<path d="M314.806 405.741L303.451 394.106" stroke="black" stroke-opacity="0.48" stroke-linecap="round" stroke-linejoin="round"/>
<path d="M303.801 406.132L314.449 393.723" stroke="black" stroke-opacity="0.48" stroke-linecap="round" stroke-linejoin="round"/>
<path d="M212.843 110.642L205.025 95.8574L197.229 110.65L189.426 125.435L205.047 125.419L220.661 125.41L212.843 110.642Z" stroke="black" stroke-opacity="0.48" stroke-linecap="round" stroke-linejoin="round"/>
<path d="M186.991 291.28L179.173 276.504L171.377 291.288L163.574 306.073L179.196 306.065L194.809 306.057L186.991 291.28Z" stroke="black" stroke-opacity="0.48" stroke-linecap="round" stroke-linejoin="round"/>
<path d="M276.602 346.749L268.784 331.973L260.988 346.757L253.185 361.55L268.798 361.534L284.42 361.526L276.602 346.749Z" stroke="black" stroke-opacity="0.48" stroke-linecap="round" stroke-linejoin="round"/>
<path d="M328.141 233.297L332.17 216.804L317.092 221.238L302.007 225.665L313.056 237.723L324.106 249.79L328.141 233.297Z" stroke="black" stroke-opacity="0.48" stroke-linecap="round" stroke-linejoin="round"/>
<path d="M71.3132 41.8451L75.3489 25.3517L60.2637 29.7863L45.1785 34.2127L56.2355 46.2715L67.2851 58.3385L71.3132 41.8451Z" stroke="black" stroke-opacity="0.48" stroke-linecap="round" stroke-linejoin="round"/>
<path d="M60.6211 398.166L64.6493 381.672L49.5715 386.107L34.4863 390.534L45.5359 402.592L56.5855 414.659L60.6211 398.166Z" stroke="black" stroke-opacity="0.48" stroke-linecap="round" stroke-linejoin="round"/>
<path d="M343.964 60.2669L357.485 51.7232L343.956 43.2039L330.42 34.6765L330.435 51.7395L330.442 68.8106L343.964 60.2669Z" stroke="black" stroke-opacity="0.48" stroke-linecap="round" stroke-linejoin="round"/>
<path d="M60.2711 230.775L73.7927 222.231L60.2636 213.712L46.7346 205.184L46.7421 222.255L46.7495 239.318L60.2711 230.775Z" stroke="black" stroke-opacity="0.48" stroke-linecap="round" stroke-linejoin="round"/>
<path d="M239.238 202.833C239.238 209.985 233.937 215.778 227.392 215.778C220.847 215.778 215.546 209.985 215.546 202.833C215.546 195.68 220.847 189.887 227.392 189.887C233.937 189.887 239.238 195.68 239.238 202.833Z" stroke="black" stroke-opacity="0.48" stroke-linecap="round" stroke-linejoin="round"/>
<path d="M179.374 58.3384C179.374 65.4907 174.073 71.2842 167.528 71.2842C160.983 71.2842 155.682 65.4907 155.682 58.3384C155.682 51.1861 160.991 45.3927 167.528 45.3927C174.065 45.3927 179.374 51.1861 179.374 58.3384Z" stroke="black" stroke-opacity="0.48" stroke-linecap="round" stroke-linejoin="round"/>
<path d="M186.932 440.486C186.932 447.638 181.63 453.431 175.086 453.431C168.541 453.431 163.239 447.638 163.239 440.486C163.239 433.333 168.548 427.54 175.086 427.54C181.623 427.54 186.932 433.333 186.932 440.486Z" stroke="black" stroke-opacity="0.48" stroke-linecap="round" stroke-linejoin="round"/>
<path d="M218.621 421.128C218.621 413.976 223.93 408.182 230.467 408.182C237.005 408.182 242.314 413.976 242.314 421.128" stroke="black" stroke-opacity="0.48" stroke-linecap="round" stroke-linejoin="round"/>
<path d="M124.052 222.255C124.052 215.103 129.361 209.31 135.898 209.31C142.436 209.31 147.745 215.103 147.745 222.255" stroke="black" stroke-opacity="0.48" stroke-linecap="round" stroke-linejoin="round"/>
<path d="M-0.605713 117.119C-0.605713 109.967 4.67337 104.173 11.1884 104.173C17.7035 104.173 22.9826 109.967 22.9826 117.119" stroke="black" stroke-opacity="0.48" stroke-linecap="round" stroke-linejoin="round"/>
<path d="M298.06 138.324C291.516 138.324 286.214 132.555 286.214 125.435C286.214 118.315 291.516 112.546 298.06 112.546" stroke="black" stroke-opacity="0.48" stroke-linecap="round" stroke-linejoin="round"/>
<path d="M12.752 440.421C6.20718 440.421 0.905762 434.652 0.905762 427.532C0.905762 420.412 6.20718 414.643 12.752 414.643" stroke="black" stroke-opacity="0.48" stroke-linecap="round" stroke-linejoin="round"/>
<path d="M139.897 28.6226C133.352 28.6226 128.05 22.8536 128.05 15.7339C128.05 8.61412 133.352 2.84509 139.897 2.84509" stroke="black" stroke-opacity="0.48" stroke-linecap="round" stroke-linejoin="round"/>
<path d="M18.6789 304.234C18.6789 311.386 13.3775 317.18 6.8326 317.18C0.28774 317.18 -5.01367 311.386 -5.01367 304.234C-5.01367 297.082 0.295186 291.288 6.8326 291.288C13.37 291.288 18.6789 297.082 18.6789 304.234Z" stroke="black" stroke-opacity="0.48" stroke-linecap="round" stroke-linejoin="round"/>
<path d="M384.06 319.027C384.06 326.179 378.758 331.973 372.213 331.973C365.668 331.973 360.367 326.179 360.367 319.027C360.367 311.874 365.668 306.081 372.213 306.081C378.758 306.081 384.06 311.874 384.06 319.027Z" stroke="black" stroke-opacity="0.48" stroke-linecap="round" stroke-linejoin="round"/>
<path d="M374.849 112.554H351.283V138.307H374.849V112.554Z" stroke="black" stroke-opacity="0.48" stroke-linecap="round" stroke-linejoin="round"/>
<path d="M108.371 125.435H84.8049V151.188H108.371V125.435Z" stroke="black" stroke-opacity="0.48" stroke-linecap="round" stroke-linejoin="round"/>
<path d="M107.187 289.872H83.6211V315.626H107.187V289.872Z" stroke="black" stroke-opacity="0.48" stroke-linecap="round" stroke-linejoin="round"/>
<path d="M374.849 414.659H351.283V440.412H374.849V414.659Z" stroke="black" stroke-opacity="0.48" stroke-linecap="round" stroke-linejoin="round"/>
<path d="M277.078 2.85327H253.512V28.6064H277.078V2.85327Z" stroke="black" stroke-opacity="0.48" stroke-linecap="round" stroke-linejoin="round"/>
<path d="M219.649 264.746C214.504 264.746 215.39 254.778 208.823 254.778" stroke="black" stroke-opacity="0.48" stroke-width="2" stroke-linecap="round" stroke-linejoin="round"/>
<path d="M241.294 264.746C236.149 264.746 237.035 254.778 230.468 254.778" stroke="black" stroke-opacity="0.48" stroke-width="2" stroke-linecap="round" stroke-linejoin="round"/>
<path d="M219.649 264.746C224.794 264.746 223.908 254.778 230.475 254.778" stroke="black" stroke-opacity="0.48" stroke-width="2" stroke-linecap="round" stroke-linejoin="round"/>
<path d="M241.294 264.746C246.439 264.746 245.553 254.778 252.12 254.778" stroke="black" stroke-opacity="0.48" stroke-width="2" stroke-linecap="round" stroke-linejoin="round"/>
<path d="M310.83 182.718C305.685 182.718 306.571 172.751 300.004 172.751" stroke="black" stroke-opacity="0.48" stroke-width="2" stroke-linecap="round" stroke-linejoin="round"/>
<path d="M332.475 182.718C327.33 182.718 328.216 172.751 321.649 172.751" stroke="black" stroke-opacity="0.48" stroke-width="2" stroke-linecap="round" stroke-linejoin="round"/>
<path d="M310.83 182.718C315.975 182.718 315.089 172.751 321.656 172.751" stroke="black" stroke-opacity="0.48" stroke-width="2" stroke-linecap="round" stroke-linejoin="round"/>
<path d="M332.475 182.718C337.62 182.718 336.734 172.751 343.301 172.751" stroke="black" stroke-opacity="0.48" stroke-width="2" stroke-linecap="round" stroke-linejoin="round"/>
<path d="M9.81082 170.668C4.66577 170.668 5.55182 160.7 -1.01538 160.7" stroke="black" stroke-opacity="0.48" stroke-width="2" stroke-linecap="round" stroke-linejoin="round"/>
<path d="M31.4558 170.668C26.3108 170.668 27.1968 160.7 20.6296 160.7" stroke="black" stroke-opacity="0.48" stroke-width="2" stroke-linecap="round" stroke-linejoin="round"/>
<path d="M9.81079 170.668C14.9558 170.668 14.0698 160.7 20.637 160.7" stroke="black" stroke-opacity="0.48" stroke-width="2" stroke-linecap="round" stroke-linejoin="round"/>
<path d="M31.4558 170.668C36.6009 170.668 35.7148 160.7 42.282 160.7" stroke="black" stroke-opacity="0.48" stroke-width="2" stroke-linecap="round" stroke-linejoin="round"/>
<path d="M221.443 37.1826C221.443 42.8052 212.322 41.8369 212.322 49.0136" stroke="black" stroke-opacity="0.48" stroke-width="2" stroke-linecap="round" stroke-linejoin="round"/>
<path d="M221.443 13.5288C221.443 19.1514 212.322 18.1831 212.322 25.3598" stroke="black" stroke-opacity="0.48" stroke-width="2" stroke-linecap="round" stroke-linejoin="round"/>
<path d="M221.443 37.1827C221.443 31.5601 212.322 32.5284 212.322 25.3517" stroke="black" stroke-opacity="0.48" stroke-width="2" stroke-linecap="round" stroke-linejoin="round"/>
<path d="M221.443 13.5289C221.443 7.90629 212.322 8.87458 212.322 1.69788" stroke="black" stroke-opacity="0.48" stroke-width="2" stroke-linecap="round" stroke-linejoin="round"/>
<path d="M155.071 160.92C155.071 166.542 145.95 165.574 145.95 172.751" stroke="black" stroke-opacity="0.48" stroke-width="2" stroke-linecap="round" stroke-linejoin="round"/>
<path d="M155.071 137.266C155.071 142.888 145.95 141.92 145.95 149.097" stroke="black" stroke-opacity="0.48" stroke-width="2" stroke-linecap="round" stroke-linejoin="round"/>
<path d="M155.071 160.92C155.071 155.297 145.95 156.265 145.95 149.089" stroke="black" stroke-opacity="0.48" stroke-width="2" stroke-linecap="round" stroke-linejoin="round"/>
<path d="M155.071 137.266C155.071 131.643 145.95 132.612 145.95 125.435" stroke="black" stroke-opacity="0.48" stroke-width="2" stroke-linecap="round" stroke-linejoin="round"/>
<path d="M334.984 358.588C334.984 364.211 325.863 363.243 325.863 370.419" stroke="black" stroke-opacity="0.48" stroke-width="2" stroke-linecap="round" stroke-linejoin="round"/>
<path d="M334.984 334.934C334.984 340.557 325.863 339.589 325.863 346.765" stroke="black" stroke-opacity="0.48" stroke-width="2" stroke-linecap="round" stroke-linejoin="round"/>
<path d="M334.984 358.588C334.984 352.966 325.863 353.934 325.863 346.757" stroke="black" stroke-opacity="0.48" stroke-width="2" stroke-linecap="round" stroke-linejoin="round"/>
<path d="M334.984 334.934C334.984 329.312 325.863 330.28 325.863 323.104" stroke="black" stroke-opacity="0.48" stroke-width="2" stroke-linecap="round" stroke-linejoin="round"/>
<path d="M111.751 377.23C111.751 382.852 102.63 381.884 102.63 389.061" stroke="black" stroke-opacity="0.48" stroke-width="2" stroke-linecap="round" stroke-linejoin="round"/>
<path d="M111.751 353.576C111.751 359.198 102.63 358.23 102.63 365.407" stroke="black" stroke-opacity="0.48" stroke-width="2" stroke-linecap="round" stroke-linejoin="round"/>
<path d="M111.751 377.23C111.751 371.607 102.63 372.575 102.63 365.399" stroke="black" stroke-opacity="0.48" stroke-width="2" stroke-linecap="round" stroke-linejoin="round"/>
<path d="M111.751 353.576C111.751 347.953 102.63 348.922 102.63 341.745" stroke="black" stroke-opacity="0.48" stroke-width="2" stroke-linecap="round" stroke-linejoin="round"/>
<path d="M245.582 291.288H272.29" stroke="black" stroke-opacity="0.48" stroke-width="2" stroke-linecap="round" stroke-linejoin="round"/>
<path d="M-16.9717 206.95H9.73642" stroke="black" stroke-opacity="0.48" stroke-width="2" stroke-linecap="round" stroke-linejoin="round"/>
<path d="M247.585 71.2842H274.293" stroke="black" stroke-opacity="0.48" stroke-width="2" stroke-linecap="round" stroke-linejoin="round"/>
<path d="M352.854 5.41638H379.562" stroke="black" stroke-opacity="0.48" stroke-width="2" stroke-linecap="round" stroke-linejoin="round"/>
<path d="M158.079 384.04L176.962 363.397" stroke="black" stroke-opacity="0.48" stroke-width="2" stroke-linecap="round" stroke-linejoin="round"/>
<path d="M1.74707 26.0514L20.6371 5.41638" stroke="black" stroke-opacity="0.48" stroke-width="2" stroke-linecap="round" stroke-linejoin="round"/>
<path d="M366.212 237.618L385.094 216.983" stroke="black" stroke-opacity="0.48" stroke-width="2" stroke-linecap="round" stroke-linejoin="round"/>
<g opacity="0.3">
<path d="M229.835 121.513L222.016 106.728L214.221 121.513L206.417 136.306L222.031 136.29L237.653 136.281L229.835 121.513Z" stroke="black" stroke-opacity="0.48" stroke-miterlimit="10"/>
<path d="M203.983 302.151L196.165 287.366L188.369 302.159L180.566 316.944L196.18 316.928H211.801L203.983 302.151Z" stroke="black" stroke-opacity="0.48" stroke-miterlimit="10"/>
<path d="M293.593 357.62L285.767 342.844L277.972 357.628L270.176 372.421L285.79 372.405L301.411 372.397L293.593 357.62Z" stroke="black" stroke-opacity="0.48" stroke-miterlimit="10"/>
<path d="M345.125 244.168L349.161 227.675L334.083 232.109L318.998 236.536L330.048 248.594L341.097 260.661L345.125 244.168Z" stroke="black" stroke-opacity="0.48" stroke-miterlimit="10"/>
<path d="M88.3045 52.7159L92.3326 36.2225L77.2549 40.6571L62.1697 45.0836L73.2193 57.1424L84.2688 69.2012L88.3045 52.7159Z" stroke="black" stroke-opacity="0.48" stroke-miterlimit="10"/>
<path d="M77.6049 409.037L81.6405 392.543L66.5627 396.978L51.4775 401.404L62.5271 413.463L73.5767 425.53L77.6049 409.037Z" stroke="black" stroke-opacity="0.48" stroke-miterlimit="10"/>
<path d="M360.948 71.1378L374.477 62.5941L360.94 54.0748L347.411 45.5474L347.426 62.6103L347.433 79.6815L360.948 71.1378Z" stroke="black" stroke-opacity="0.48" stroke-miterlimit="10"/>
<path d="M77.2624 241.645L90.784 233.102L77.255 224.582L63.7185 216.055L63.7334 233.118L63.7408 250.189L77.2624 241.645Z" stroke="black" stroke-opacity="0.48" stroke-miterlimit="10"/>
<path d="M256.23 213.704C256.23 220.856 250.928 226.649 244.384 226.649C237.839 226.649 232.537 220.856 232.537 213.704C232.537 206.551 237.839 200.758 244.384 200.758C250.928 200.758 256.23 206.551 256.23 213.704Z" stroke="black" stroke-opacity="0.48" stroke-miterlimit="10"/>
<path d="M196.358 69.2012C196.358 76.3535 191.057 82.147 184.512 82.147C177.967 82.147 172.666 76.3535 172.666 69.2012C172.666 62.0489 177.974 56.2555 184.512 56.2555C191.049 56.2555 196.358 62.0489 196.358 69.2012Z" stroke="black" stroke-opacity="0.48" stroke-miterlimit="10"/>
<path d="M203.923 451.356C203.923 458.509 198.622 464.302 192.077 464.302C185.532 464.302 180.23 458.509 180.23 451.356C180.23 444.204 185.539 438.411 192.077 438.411C198.614 438.411 203.923 444.204 203.923 451.356Z" stroke="black" stroke-opacity="0.48" stroke-miterlimit="10"/>
<path d="M235.612 431.999C235.612 424.847 240.921 419.053 247.459 419.053C253.996 419.053 259.305 424.847 259.305 431.999" stroke="black" stroke-opacity="0.48" stroke-miterlimit="10"/>
<path d="M141.043 233.126C141.043 225.974 146.352 220.18 152.889 220.18C159.427 220.18 164.736 225.974 164.736 233.126" stroke="black" stroke-opacity="0.48" stroke-miterlimit="10"/>
<path d="M16.3855 127.99C16.3855 120.838 21.6646 115.044 28.1797 115.044C34.6947 115.044 39.9738 120.838 39.9738 127.99" stroke="black" stroke-opacity="0.48" stroke-miterlimit="10"/>
<path d="M315.052 149.195C308.507 149.195 303.206 143.426 303.206 136.306C303.206 129.186 308.507 123.417 315.052 123.417" stroke="black" stroke-opacity="0.48" stroke-miterlimit="10"/>
<path d="M29.7433 451.291C23.1984 451.291 17.897 445.522 17.897 438.403C17.897 431.283 23.1984 425.514 29.7433 425.514" stroke="black" stroke-opacity="0.48" stroke-miterlimit="10"/>
<path d="M156.888 39.4936C150.343 39.4936 145.042 33.7246 145.042 26.6048C145.042 19.4851 150.343 13.7161 156.888 13.7161" stroke="black" stroke-opacity="0.48" stroke-miterlimit="10"/>
<path d="M35.6701 315.105C35.6701 322.257 30.3687 328.051 23.8238 328.051C17.279 328.051 11.9775 322.257 11.9775 315.105C11.9775 307.953 17.2864 302.159 23.8238 302.159C30.3612 302.159 35.6701 307.953 35.6701 315.105Z" stroke="black" stroke-opacity="0.48" stroke-miterlimit="10"/>
<path d="M401.051 329.89C401.051 337.042 395.749 342.835 389.204 342.835C382.66 342.835 377.358 337.042 377.358 329.89C377.358 322.737 382.66 316.944 389.204 316.944C395.749 316.944 401.051 322.737 401.051 329.89Z" stroke="black" stroke-opacity="0.48" stroke-miterlimit="10"/>
<path d="M391.84 123.425H368.274V149.178H391.84V123.425Z" stroke="black" stroke-opacity="0.48" stroke-miterlimit="10"/>
<path d="M125.362 136.306H101.796V162.059H125.362V136.306Z" stroke="black" stroke-opacity="0.48" stroke-miterlimit="10"/>
<path d="M124.179 300.743H100.613V326.497H124.179V300.743Z" stroke="black" stroke-opacity="0.48" stroke-miterlimit="10"/>
<path d="M391.84 425.53H368.274V451.283H391.84V425.53Z" stroke="black" stroke-opacity="0.48" stroke-miterlimit="10"/>
<path d="M294.069 13.7241H270.503V39.4773H294.069V13.7241Z" stroke="black" stroke-opacity="0.48" stroke-miterlimit="10"/>
<path d="M236.64 275.617C231.495 275.617 232.381 265.649 225.814 265.649" stroke="black" stroke-opacity="0.48" stroke-miterlimit="10"/>
<path d="M258.285 275.617C253.14 275.617 254.026 265.649 247.459 265.649" stroke="black" stroke-opacity="0.48" stroke-miterlimit="10"/>
<path d="M236.64 275.617C241.785 275.617 240.899 265.649 247.466 265.649" stroke="black" stroke-opacity="0.48" stroke-miterlimit="10"/>
<path d="M258.285 275.617C263.43 275.617 262.544 265.649 269.111 265.649" stroke="black" stroke-opacity="0.48" stroke-miterlimit="10"/>
<path d="M327.821 193.589C322.676 193.589 323.562 183.622 316.995 183.622" stroke="black" stroke-opacity="0.48" stroke-miterlimit="10"/>
<path d="M349.466 193.589C344.321 193.589 345.207 183.622 338.64 183.622" stroke="black" stroke-opacity="0.48" stroke-miterlimit="10"/>
<path d="M327.821 193.589C332.966 193.589 332.08 183.622 338.647 183.622" stroke="black" stroke-opacity="0.48" stroke-miterlimit="10"/>
<path d="M349.466 193.589C354.611 193.589 353.725 183.622 360.292 183.622" stroke="black" stroke-opacity="0.48" stroke-miterlimit="10"/>
<path d="M26.8023 181.539C21.6572 181.539 22.5433 171.571 15.9761 171.571" stroke="black" stroke-opacity="0.48" stroke-miterlimit="10"/>
<path d="M48.4473 181.539C43.3022 181.539 44.1883 171.571 37.6211 171.571" stroke="black" stroke-opacity="0.48" stroke-miterlimit="10"/>
<path d="M26.8022 181.539C31.9473 181.539 31.0612 171.571 37.6284 171.571" stroke="black" stroke-opacity="0.48" stroke-miterlimit="10"/>
<path d="M48.4473 181.539C53.5923 181.539 52.7063 171.571 59.2735 171.571" stroke="black" stroke-opacity="0.48" stroke-miterlimit="10"/>
<path d="M238.427 48.0536C238.427 53.6762 229.306 52.7079 229.306 59.8846" stroke="black" stroke-opacity="0.48" stroke-miterlimit="10"/>
<path d="M238.427 24.3997C238.427 30.0222 229.306 29.0539 229.306 36.2306" stroke="black" stroke-opacity="0.48" stroke-miterlimit="10"/>
<path d="M238.427 48.0535C238.427 42.431 229.306 43.3992 229.306 36.2225" stroke="black" stroke-opacity="0.48" stroke-miterlimit="10"/>
<path d="M238.427 24.3997C238.427 18.7771 229.306 19.7454 229.306 12.5687" stroke="black" stroke-opacity="0.48" stroke-miterlimit="10"/>
<path d="M172.055 171.791C172.055 177.413 162.934 176.445 162.934 183.622" stroke="black" stroke-opacity="0.48" stroke-miterlimit="10"/>
<path d="M172.055 148.137C172.055 153.759 162.934 152.791 162.934 159.968" stroke="black" stroke-opacity="0.48" stroke-miterlimit="10"/>
<path d="M172.055 171.791C172.055 166.168 162.934 167.136 162.934 159.96" stroke="black" stroke-opacity="0.48" stroke-miterlimit="10"/>
<path d="M172.055 148.137C172.055 142.514 162.934 143.482 162.934 136.306" stroke="black" stroke-opacity="0.48" stroke-miterlimit="10"/>
<path d="M351.975 369.459C351.975 375.082 342.854 374.113 342.854 381.29" stroke="black" stroke-opacity="0.48" stroke-miterlimit="10"/>
<path d="M351.975 345.805C351.975 351.428 342.854 350.46 342.854 357.636" stroke="black" stroke-opacity="0.48" stroke-miterlimit="10"/>
<path d="M351.975 369.459C351.975 363.837 342.854 364.805 342.854 357.628" stroke="black" stroke-opacity="0.48" stroke-miterlimit="10"/>
<path d="M351.975 345.805C351.975 340.183 342.854 341.151 342.854 333.974" stroke="black" stroke-opacity="0.48" stroke-miterlimit="10"/>
<path d="M128.743 388.101C128.743 393.723 119.622 392.755 119.622 399.932" stroke="black" stroke-opacity="0.48" stroke-miterlimit="10"/>
<path d="M128.743 364.447C128.743 370.069 119.622 369.101 119.622 376.278" stroke="black" stroke-opacity="0.48" stroke-miterlimit="10"/>
<path d="M128.743 388.101C128.743 382.478 119.622 383.446 119.622 376.27" stroke="black" stroke-opacity="0.48" stroke-miterlimit="10"/>
<path d="M128.743 364.447C128.743 358.824 119.622 359.793 119.622 352.616" stroke="black" stroke-opacity="0.48" stroke-miterlimit="10"/>
<path d="M262.574 302.159H289.282" stroke="black" stroke-opacity="0.48" stroke-miterlimit="10"/>
<path d="M0.012207 217.821H26.7203" stroke="black" stroke-opacity="0.48" stroke-miterlimit="10"/>
<path d="M264.569 82.155H291.277" stroke="black" stroke-opacity="0.48" stroke-miterlimit="10"/>
<path d="M369.845 16.2872H396.554" stroke="black" stroke-opacity="0.48" stroke-miterlimit="10"/>
<path d="M175.071 394.911L193.953 374.268" stroke="black" stroke-opacity="0.48" stroke-miterlimit="10"/>
<path d="M18.7385 36.9223L37.6211 16.2872" stroke="black" stroke-opacity="0.48" stroke-miterlimit="10"/>
<path d="M383.196 248.489L402.086 227.854" stroke="black" stroke-opacity="0.48" stroke-miterlimit="10"/>
</g>
<path d="M226.194 360.387C224.012 361.884 221.13 361.168 219.76 358.784C218.383 356.399 219.046 353.251 221.22 351.753C223.401 350.256 226.283 350.972 227.653 353.356C229.023 355.74 228.368 358.889 226.194 360.387Z" stroke="black" stroke-opacity="0.48" stroke-linecap="round" stroke-linejoin="round"/>
<path d="M189.419 220.099C187.237 221.596 184.356 220.88 182.986 218.496C181.616 216.112 182.271 212.963 184.445 211.466C186.627 209.969 189.508 210.685 190.878 213.069C192.248 215.453 191.593 218.602 189.419 220.099Z" stroke="black" stroke-opacity="0.48" stroke-linecap="round" stroke-linejoin="round"/>
<path d="M21.2254 263.241C19.0438 264.738 16.1622 264.022 14.7922 261.638C13.4222 259.254 14.0774 256.105 16.2516 254.607C18.4332 253.11 21.3147 253.826 22.6848 256.21C24.0548 258.595 23.3996 261.743 21.2254 263.241Z" stroke="black" stroke-opacity="0.48" stroke-linecap="round" stroke-linejoin="round"/>
<path d="M69.0423 102.709C66.8607 104.206 63.9791 103.49 62.6091 101.106C61.2391 98.7216 61.8943 95.5727 64.0685 94.0755C66.2501 92.5783 69.1316 93.2943 70.5017 95.6784C71.8717 98.0625 71.2165 101.211 69.0423 102.709V102.709Z" stroke="black" stroke-opacity="0.48" stroke-linecap="round" stroke-linejoin="round"/>
<path d="M325.759 102.178C323.577 103.675 320.696 102.959 319.326 100.575C317.956 98.1911 318.611 95.0421 320.785 93.545C322.967 92.0478 325.848 92.7638 327.218 95.1479C328.588 97.532 327.933 100.681 325.759 102.178Z" stroke="black" stroke-opacity="0.48" stroke-linecap="round" stroke-linejoin="round"/>
<path d="M391.684 281.874C389.502 283.371 386.621 282.655 385.251 280.271C383.881 277.887 384.536 274.738 386.71 273.241C388.892 271.744 391.773 272.46 393.143 274.844C394.513 277.228 393.858 280.377 391.684 281.874Z" stroke="black" stroke-opacity="0.48" stroke-linecap="round" stroke-linejoin="round"/>
</svg>
