<svg width="66" height="64" viewBox="0 0 66 64" fill="none" xmlns="http://www.w3.org/2000/svg">
<mask id="path-1-inside-1_13_11730" fill="white">
<path fill-rule="evenodd" clip-rule="evenodd" d="M37.7728 1.08934C34.7567 -0.363114 31.2434 -0.363114 28.2273 1.08934L11.1905 9.29385C8.17444 10.7463 5.98392 13.4931 5.23901 16.7568L1.03126 35.1921C0.286359 38.4558 1.06815 41.881 3.15532 44.4982L14.9452 59.2822C17.0323 61.8995 20.1978 63.4239 23.5453 63.4239H42.4548C45.8023 63.4239 48.9677 61.8995 51.0549 59.2822L62.8448 44.4982C64.932 41.881 65.7137 38.4558 64.9688 35.1921L60.7611 16.7568C60.0162 13.4931 57.8256 10.7463 54.8096 9.29385L37.7728 1.08934Z"/>
</mask>
<path fill-rule="evenodd" clip-rule="evenodd" d="M37.7728 1.08934C34.7567 -0.363114 31.2434 -0.363114 28.2273 1.08934L11.1905 9.29385C8.17444 10.7463 5.98392 13.4931 5.23901 16.7568L1.03126 35.1921C0.286359 38.4558 1.06815 41.881 3.15532 44.4982L14.9452 59.2822C17.0323 61.8995 20.1978 63.4239 23.5453 63.4239H42.4548C45.8023 63.4239 48.9677 61.8995 51.0549 59.2822L62.8448 44.4982C64.932 41.881 65.7137 38.4558 64.9688 35.1921L60.7611 16.7568C60.0162 13.4931 57.8256 10.7463 54.8096 9.29385L37.7728 1.08934Z" fill="#F5F3F3"/>
<path d="M28.2273 1.08934L28.4443 1.53983V1.53983L28.2273 1.08934ZM37.7728 1.08934L37.9897 0.638858V0.638858L37.7728 1.08934ZM11.1905 9.29385L10.9736 8.84336L11.1905 9.29385ZM5.23901 16.7568L4.75155 16.6455L5.23901 16.7568ZM1.03126 35.1921L0.543799 35.0809L1.03126 35.1921ZM3.15532 44.4982L2.76441 44.81L3.15532 44.4982ZM14.9452 59.2822L15.3361 58.9705L14.9452 59.2822ZM51.0549 59.2822L50.664 58.9705L51.0549 59.2822ZM62.8448 44.4982L62.4539 44.1865L62.8448 44.4982ZM64.9688 35.1921L65.4563 35.0809L64.9688 35.1921ZM60.7611 16.7568L61.2485 16.6455L60.7611 16.7568ZM54.8096 9.29385L55.0265 8.84336L54.8096 9.29385ZM28.4443 1.53983C31.3232 0.153391 34.6769 0.153391 37.5558 1.53983L37.9897 0.638858C34.8366 -0.87962 31.1635 -0.879619 28.0104 0.638858L28.4443 1.53983ZM11.4074 9.74433L28.4443 1.53983L28.0104 0.638858L10.9736 8.84336L11.4074 9.74433ZM5.72648 16.868C6.43752 13.7527 8.52848 11.1308 11.4074 9.74433L10.9736 8.84336C7.82041 10.3618 5.53031 13.2335 4.75155 16.6455L5.72648 16.868ZM1.51873 35.3034L5.72648 16.868L4.75155 16.6455L0.543799 35.0809L1.51873 35.3034ZM3.54624 44.1865C1.55393 41.6882 0.807682 38.4187 1.51873 35.3034L0.543799 35.0809C-0.234965 38.4929 0.58236 42.0738 2.76441 44.81L3.54624 44.1865ZM15.3361 58.9705L3.54624 44.1865L2.76441 44.81L14.5543 59.594L15.3361 58.9705ZM23.5453 62.9239C20.3499 62.9239 17.3284 61.4688 15.3361 58.9705L14.5543 59.594C16.7363 62.3302 20.0456 63.9239 23.5453 63.9239V62.9239ZM42.4548 62.9239H23.5453V63.9239H42.4548V62.9239ZM50.664 58.9705C48.6717 61.4688 45.6502 62.9239 42.4548 62.9239V63.9239C45.9545 63.9239 49.2638 62.3302 51.4458 59.594L50.664 58.9705ZM62.4539 44.1865L50.664 58.9705L51.4458 59.594L63.2357 44.81L62.4539 44.1865ZM64.4814 35.3034C65.1924 38.4187 64.4462 41.6882 62.4539 44.1865L63.2357 44.81C65.4177 42.0738 66.2351 38.4929 65.4563 35.0809L64.4814 35.3034ZM60.2736 16.868L64.4814 35.3034L65.4563 35.0809L61.2485 16.6455L60.2736 16.868ZM54.5927 9.74433C57.4716 11.1308 59.5626 13.7527 60.2736 16.868L61.2485 16.6455C60.4698 13.2335 58.1797 10.3618 55.0265 8.84336L54.5927 9.74433ZM37.5558 1.53983L54.5927 9.74433L55.0265 8.84336L37.9897 0.638858L37.5558 1.53983Z" fill="black" mask="url(#path-1-inside-1_13_11730)"/>
</svg>
