<svg width="24" height="24" viewBox="0 0 24 24" fill="none" xmlns="http://www.w3.org/2000/svg">
<path d="M2 9.99979V13.9998C2 15.9998 3 16.9998 5 16.9998H6.43C6.8 16.9998 7.17 17.1098 7.49 17.2998L10.41 19.1298C12.93 20.7098 15 19.5598 15 16.5898V7.40979C15 4.42979 12.93 3.28979 10.41 4.86979L7.49 6.69979C7.17 6.88979 6.8 6.99979 6.43 6.99979H5C3 6.99979 2 7.99979 2 9.99979Z" stroke="black" stroke-width="1.5"/>
<path d="M18 8C18.8665 9.15354 19.335 10.5573 19.335 12C19.335 13.4427 18.8665 14.8465 18 16M19.83 5.5C21.2369 7.37499 21.9975 9.65586 21.9975 12C21.9975 14.3441 21.2369 16.625 19.83 18.5" stroke="black" stroke-width="1.5" stroke-linecap="round" stroke-linejoin="round"/>
</svg>
